<?xml version="1.0" standalone="no"?>
<!DOCTYPE svg PUBLIC "-//W3C//DTD SVG 20010904//EN"
 "http://www.w3.org/TR/2001/REC-SVG-20010904/DTD/svg10.dtd">
<svg version="1.0" xmlns="http://www.w3.org/2000/svg"
 width="1024.000000pt" height="1024.000000pt" viewBox="0 0 1024.000000 1024.000000"
 preserveAspectRatio="xMidYMid meet">

<g transform="translate(0.000000,1024.000000) scale(0.100000,-0.100000)"
fill="#000000" stroke="none">
<path d="M4986 8771 c-4 -7 -5 -15 -2 -18 9 -9 19 4 14 18 -4 11 -6 11 -12 0z"/>
<path d="M5790 8380 c0 -5 5 -10 11 -10 5 0 7 5 4 10 -3 6 -8 10 -11 10 -2 0
-4 -4 -4 -10z"/>
<path d="M4672 8373 c-27 -4 -33 -8 -30 -26 2 -18 11 -23 44 -25 48 -4 75 18
54 43 -7 8 -18 14 -24 13 -6 0 -26 -3 -44 -5z"/>
<path d="M4423 8333 c-24 -5 -40 -40 -25 -55 15 -15 84 18 80 39 -3 19 -19 23
-55 16z"/>
<path d="M4141 8249 c-29 -10 -59 -23 -65 -29 -7 -5 -37 -15 -67 -20 -29 -6
-60 -17 -68 -25 -14 -13 -13 -17 2 -32 16 -16 20 -16 73 2 31 10 67 27 79 37
13 10 33 18 45 18 29 0 80 28 80 44 0 23 -24 25 -79 5z"/>
<path d="M3754 8106 c-6 -16 12 -56 26 -56 10 0 40 28 40 39 0 27 -56 42 -66
17z"/>
<path d="M6815 8030 c-17 -18 -17 -20 0 -26 17 -7 35 10 35 34 0 18 -14 15
-35 -8z"/>
<path d="M3581 8001 c-17 -11 -8 -39 15 -48 20 -8 49 21 41 41 -7 18 -34 21
-56 7z"/>
<path d="M6995 7980 c-27 -30 -11 -35 21 -6 21 18 24 25 13 26 -9 0 -24 -9
-34 -20z"/>
<path d="M7082 7898 c-18 -18 -15 -40 6 -36 9 2 18 13 20 26 4 24 -7 29 -26
10z"/>
<path d="M5158 7873 c6 -2 18 -2 25 0 6 3 1 5 -13 5 -14 0 -19 -2 -12 -5z"/>
<path d="M5200 7870 c0 -6 35 -10 85 -10 75 0 86 -2 95 -21 11 -20 11 -20 -13
-4 -16 10 -34 14 -51 9 -38 -9 -32 -25 8 -21 25 3 37 0 41 -11 3 -8 3 -17 0
-20 -3 -3 -5 -1 -5 5 0 6 -14 10 -30 8 -40 -3 -52 -15 -15 -15 16 0 26 -3 22
-6 -6 -7 -50 -12 -159 -18 -43 -3 -83 -8 -88 -11 -6 -4 -18 -1 -27 7 -13 10
-17 10 -20 1 -3 -7 -11 -13 -18 -13 -7 0 -35 -6 -61 -14 -27 -8 -87 -24 -133
-36 -82 -20 -150 -47 -86 -34 39 8 160 41 205 56 51 16 177 23 435 22 183 0
243 -4 293 -17 35 -9 72 -17 83 -17 10 0 67 -13 126 -30 121 -34 116 -33 108
-21 -3 6 16 3 42 -5 114 -37 184 -67 193 -82 5 -10 10 -12 10 -5 0 11 259
-115 290 -141 8 -8 25 -17 36 -20 12 -4 34 -18 49 -31 14 -14 31 -23 36 -19 5
3 8 0 7 -8 -2 -7 5 -12 14 -12 10 1 16 -2 13 -6 -4 -7 168 -140 181 -140 3 0
2 6 -2 13 -4 7 -3 8 2 4 5 -5 9 -16 9 -24 0 -9 6 -18 14 -21 9 -3 11 0 6 8 -5
8 -4 11 3 6 6 -4 8 -14 5 -23 -5 -12 -2 -15 10 -10 9 3 21 -1 29 -11 12 -16
11 -16 -7 -2 -17 12 -18 12 -7 0 7 -8 16 -15 20 -15 20 -1 50 -27 56 -48 3
-13 37 -55 76 -93 108 -105 233 -280 328 -459 47 -87 92 -199 92 -227 0 -19
10 -39 30 -58 37 -36 61 -40 28 -5 -38 40 -43 49 -46 79 -4 36 -44 135 -80
196 -14 25 -27 51 -28 59 -2 7 -11 23 -22 35 -33 36 -38 50 -13 37 11 -7 21
-15 21 -19 0 -4 23 -45 50 -92 28 -47 50 -91 50 -97 0 -7 18 -52 41 -99 30
-62 44 -83 50 -73 5 8 9 19 9 24 0 6 -4 3 -9 -4 -8 -12 -11 -9 -16 11 -4 15
-4 32 0 38 12 20 -106 302 -158 376 -24 35 -27 45 -18 63 8 15 9 21 1 21 -6 0
-9 4 -5 9 3 5 1 12 -4 15 -5 4 -7 -7 -4 -25 3 -21 1 -29 -6 -24 -6 3 -11 11
-11 17 0 6 -7 20 -17 30 -9 10 -13 21 -9 25 4 4 11 1 16 -7 6 -8 10 -10 10 -4
0 5 -13 23 -30 39 -16 15 -26 33 -23 39 4 6 -2 4 -12 -4 -12 -10 -16 -10 -11
-2 9 16 -6 39 -101 160 -81 102 -193 215 -234 237 -33 18 -81 74 -74 86 4 5
-1 6 -9 3 -18 -7 -59 33 -50 48 4 7 3 8 -5 4 -6 -4 -23 -1 -36 8 -13 9 -39 24
-57 34 -18 11 -62 37 -97 58 -92 56 -151 87 -196 103 -22 8 -67 26 -100 42
-70 32 -161 66 -213 78 -20 5 -76 21 -124 35 -48 14 -122 33 -165 41 -43 9
-89 18 -101 21 -15 3 -21 1 -17 -6 4 -6 -5 -10 -22 -10 -21 0 -24 3 -14 9 18
11 -2 17 -89 25 -45 4 -51 4 -30 -5 19 -8 21 -13 10 -16 -8 -3 -23 -10 -32
-15 -14 -6 -16 -5 -12 7 4 10 0 15 -12 16 -18 0 -18 1 1 10 14 6 8 7 -22 3
-28 -4 -43 -2 -43 5 0 7 -40 11 -120 11 -73 0 -120 -4 -120 -10z m438 -27
c-10 -2 -28 -2 -40 0 -13 2 -5 4 17 4 22 1 32 -1 23 -4z m-166 -14 c-15 -6
-30 -5 -40 1 -13 7 -8 9 23 9 35 0 37 -1 17 -10z m178 -14 c10 -13 9 -15 -8
-15 -22 0 -36 13 -25 24 10 10 20 7 33 -9z m80 -15 c0 -5 -9 -10 -20 -10 -11
0 -20 5 -20 10 0 6 9 10 20 10 11 0 20 -4 20 -10z m-280 -31 c0 -11 -7 -11
-51 -2 -32 6 -33 7 -9 13 29 7 60 2 60 -11z m177 7 c4 -3 -2 -7 -13 -7 -10 -1
-3 -5 16 -9 21 -5 2 -6 -45 -3 -44 3 -82 9 -85 13 -3 4 -12 10 -20 13 -8 3 20
4 63 2 43 -2 81 -6 84 -9z m213 -7 c0 -9 -21 -13 -53 -11 -11 1 -17 -3 -15
-10 3 -8 32 -16 69 -20 80 -9 162 -25 131 -27 -13 -1 -20 -5 -17 -11 3 -5 -3
-10 -15 -10 -13 0 -19 4 -14 12 4 7 3 8 -5 4 -6 -4 -17 -3 -24 2 -7 5 -39 13
-72 18 -33 4 -63 8 -67 10 -5 1 -20 3 -35 4 -22 2 -24 3 -8 7 10 3 29 12 41
19 12 8 29 12 38 8 11 -4 16 -1 16 10 0 10 6 13 15 10 8 -4 15 -10 15 -15z
m-130 -5 c0 -2 -9 -4 -20 -4 -11 0 -20 4 -20 9 0 5 9 7 20 4 11 -3 20 -7 20
-9z m393 -91 c3 -5 -10 -8 -28 -8 -18 0 -37 3 -41 8 -4 4 9 7 29 7 20 0 38 -3
40 -7z m217 -23 c0 -5 -7 -10 -15 -10 -8 0 -15 5 -15 10 0 6 7 10 15 10 8 0
15 -4 15 -10z m-150 -10 c11 -8 7 -9 -15 -4 -37 8 -45 14 -19 14 10 0 26 -5
34 -10z m170 -30 c0 -5 -4 -10 -9 -10 -6 0 -13 5 -16 10 -3 6 1 10 9 10 9 0
16 -4 16 -10z m60 0 c0 -5 -9 -10 -20 -10 -11 0 -20 5 -20 10 0 6 9 10 20 10
11 0 20 -4 20 -10z m-4 -66 c19 -9 34 -20 34 -25 0 -8 -74 23 -89 37 -11 10
25 2 55 -12z m79 -33 c7 -12 -12 -24 -25 -16 -11 7 -4 25 10 25 5 0 11 -4 15
-9z m110 -1 c3 -5 1 -10 -4 -10 -6 0 -11 5 -11 10 0 6 2 10 4 10 3 0 8 -4 11
-10z m-25 -47 c0 -12 -2 -12 -13 -1 -7 7 -16 22 -20 32 -8 19 -7 19 13 1 11
-10 20 -24 20 -32z m-50 17 c0 -5 -4 -10 -10 -10 -5 0 -10 5 -10 10 0 6 5 10
10 10 6 0 10 -4 10 -10z m135 -80 c3 -5 2 -10 -4 -10 -5 0 -13 5 -16 10 -3 6
-2 10 4 10 5 0 13 -4 16 -10z m128 -119 c26 -19 45 -36 42 -39 -5 -5 -115 75
-115 84 0 6 15 -3 73 -45z m77 -57 c0 -8 -4 -12 -10 -9 -5 3 -10 10 -10 16 0
5 5 9 10 9 6 0 10 -7 10 -16z m240 -236 c0 -6 -7 -5 -15 2 -8 7 -15 17 -15 22
0 6 7 5 15 -2 8 -7 15 -17 15 -22z m140 -38 c0 -5 -2 -10 -4 -10 -3 0 -8 5
-11 10 -3 6 -1 10 4 10 6 0 11 -4 11 -10z m105 -251 c9 -17 14 -33 11 -36 -3
-3 -10 7 -16 22 -6 15 -13 32 -16 36 -3 5 -3 9 0 9 3 0 13 -14 21 -31z m199
-309 c15 -38 15 -43 2 -30 -9 8 -19 31 -22 50 -9 44 -2 38 20 -20z"/>
<path d="M5018 7853 c12 -2 32 -2 45 0 12 2 2 4 -23 4 -25 0 -35 -2 -22 -4z"/>
<path d="M5235 7840 c-8 -13 15 -13 35 0 12 8 11 10 -7 10 -12 0 -25 -4 -28
-10z"/>
<path d="M4858 7833 c6 -2 18 -2 25 0 6 3 1 5 -13 5 -14 0 -19 -2 -12 -5z"/>
<path d="M7700 7820 c6 -11 15 -20 20 -20 14 0 12 9 -4 26 -21 20 -28 17 -16
-6z"/>
<path d="M5140 7826 c0 -2 13 -6 29 -8 17 -2 28 -1 25 4 -5 8 -54 12 -54 4z"/>
<path d="M5020 7811 c0 -6 5 -13 10 -16 6 -3 10 1 10 9 0 9 -4 16 -10 16 -5 0
-10 -4 -10 -9z"/>
<path d="M7180 7810 c-8 -5 -11 -12 -7 -16 4 -4 15 0 24 9 18 18 8 23 -17 7z"/>
<path d="M5230 7800 c0 -5 9 -10 20 -10 11 0 20 5 20 10 0 6 -9 10 -20 10 -11
0 -20 -4 -20 -10z"/>
<path d="M5120 7788 c0 -8 15 -13 40 -13 41 0 52 8 24 19 -27 10 -64 7 -64 -6z"/>
<path d="M4605 7770 l-20 -9 20 0 c11 0 29 4 40 9 l20 9 -20 0 c-11 0 -29 -4
-40 -9z"/>
<path d="M7306 7754 c-4 -10 -1 -14 6 -12 15 5 23 28 10 28 -5 0 -13 -7 -16
-16z"/>
<path d="M7561 7753 c7 -12 15 -20 18 -17 3 2 -3 12 -13 22 -17 16 -18 16 -5
-5z"/>
<path d="M3810 7739 c0 -5 5 -7 10 -4 6 3 10 8 10 11 0 2 -4 4 -10 4 -5 0 -10
-5 -10 -11z"/>
<path d="M4898 7733 c7 -3 16 -2 19 1 4 3 -2 6 -13 5 -11 0 -14 -3 -6 -6z"/>
<path d="M3183 7713 c-7 -2 -13 -12 -13 -20 0 -10 6 -13 16 -9 9 3 18 6 20 6
2 0 4 7 4 15 0 15 -6 17 -27 8z"/>
<path d="M4568 7683 c7 -3 16 -2 19 1 4 3 -2 6 -13 5 -11 0 -14 -3 -6 -6z"/>
<path d="M5075 7676 c-296 -36 -580 -118 -806 -231 -121 -61 -356 -209 -449
-283 -77 -61 -279 -262 -344 -341 -121 -149 -253 -362 -355 -571 -29 -58 -59
-115 -69 -127 -9 -12 -46 -33 -81 -47 -122 -49 -193 -96 -286 -190 -111 -112
-132 -143 -195 -287 -68 -156 -72 -159 -215 -159 -124 0 -147 -4 -138 -26 3
-8 0 -21 -7 -29 -15 -19 -24 -18 194 -16 102 1 175 6 182 12 20 17 94 156 94
177 0 10 4 22 9 28 4 5 17 32 27 59 24 66 55 115 101 159 39 38 172 131 177
125 14 -17 56 -127 56 -146 0 -13 -9 -41 -20 -63 -24 -48 -25 -52 -2 -48 15 3
17 -5 15 -56 -1 -32 -3 -60 -5 -61 -2 -2 -80 -7 -173 -12 l-169 -8 -41 -72
c-69 -121 -49 -113 -266 -113 -103 0 -190 -4 -193 -9 -5 -8 49 -26 99 -33 12
-2 21 -12 23 -26 3 -21 22 -32 22 -12 0 6 68 10 183 11 100 1 272 4 382 7 200
7 201 7 265 39 77 38 190 137 226 198 50 86 69 189 49 272 -17 68 -18 88 -4
53 22 -53 29 -126 19 -175 -21 -103 -21 -111 -1 -61 11 27 29 58 39 70 25 29
122 193 122 209 0 6 7 21 15 31 16 21 18 117 6 251 -3 39 -3 81 1 95 4 14 12
46 19 72 6 26 19 54 29 63 17 15 17 14 -1 -22 -31 -64 -40 -138 -30 -263 5
-63 6 -132 4 -153 l-5 -38 59 29 c33 17 65 37 72 45 6 9 43 73 80 142 80 151
131 218 185 240 21 9 41 14 43 11 2 -2 -6 -7 -19 -11 -65 -20 -135 -109 -221
-284 -26 -52 -47 -95 -47 -95 0 -1 25 -2 56 -2 39 -1 61 -7 72 -19 16 -16 16
-17 -5 -6 -45 23 -117 13 -193 -26 -65 -34 -76 -44 -128 -122 -32 -47 -66
-108 -76 -136 -49 -128 -107 -212 -225 -328 -121 -117 -123 -118 -601 -122
-212 -2 -388 -4 -392 -4 -5 -1 -8 -8 -8 -16 0 -12 -14 -15 -64 -15 -44 0 -67
-5 -76 -15 -11 -13 36 -15 416 -15 346 0 437 3 470 15 23 7 87 17 143 21 91 6
108 11 159 40 53 32 48 22 -9 -18 l-24 -17 35 5 c52 7 -89 -43 -164 -58 -51
-10 -57 -13 -36 -19 14 -4 69 -7 122 -8 106 -1 159 -17 233 -72 162 -119 233
-156 332 -172 44 -8 70 -16 61 -20 -33 -12 -182 37 -258 86 -40 26 -78 47 -82
47 -5 0 -37 20 -71 43 -68 48 -95 54 -362 77 -149 13 -938 13 -930 0 3 -5 33
-10 66 -10 79 0 103 -13 95 -51 -6 -30 9 -40 31 -18 7 7 121 9 349 7 414 -4
405 -2 528 -119 99 -93 143 -161 182 -276 15 -45 30 -80 34 -78 3 2 12 -6 20
-18 12 -21 12 -21 -5 -7 -17 14 -18 13 -11 -13 12 -50 84 -153 126 -181 22
-14 40 -29 40 -32 0 -4 -11 1 -25 10 -34 23 -45 20 -15 -5 25 -20 114 -69 125
-69 4 0 4 4 1 9 -3 5 13 5 37 -1 23 -5 61 -7 83 -4 23 3 45 2 48 -2 4 -4 38
-12 74 -19 l67 -12 -95 5 c-52 3 -119 10 -148 15 -67 13 -79 4 -23 -18 24 -9
37 -19 31 -23 -8 -5 6 -37 41 -96 64 -110 156 -252 179 -279 10 -11 20 -33 24
-50 6 -27 4 -26 -16 10 -13 23 -50 82 -83 133 -33 50 -87 133 -120 184 -50 77
-71 100 -125 136 -70 46 -86 51 -75 25 33 -77 47 -138 50 -218 l4 -90 -8 80
c-9 95 -42 198 -79 253 -39 57 -92 118 -92 107 -1 -22 -39 -149 -39 -131 -1
11 6 46 15 78 l17 58 -36 82 c-19 46 -40 101 -47 122 -13 41 -52 112 -97 178
-47 69 -169 165 -242 190 -63 22 -82 23 -396 26 l-330 3 23 -21 c23 -22 29
-45 12 -55 -28 -17 -1 -25 83 -25 70 0 98 -4 116 -17 13 -9 44 -58 68 -110
l44 -93 164 0 164 0 -6 38 c-3 20 -11 53 -17 72 l-11 35 -135 5 c-123 5 -130
6 -77 13 62 9 224 0 232 -13 7 -11 36 -187 42 -252 l5 -57 -133 6 c-74 3 -137
8 -141 12 -4 4 53 5 127 3 l135 -4 0 29 c0 17 -5 44 -11 62 l-11 31 -164 0
c-90 0 -164 -3 -164 -6 0 -3 14 -32 30 -63 35 -64 128 -160 209 -215 l55 -37
23 38 c26 44 30 85 8 103 -8 7 -15 18 -15 24 0 6 12 -2 25 -17 19 -21 24 -35
19 -55 -7 -30 -50 -102 -62 -102 -19 0 -123 80 -179 137 -62 64 -123 156 -123
187 0 20 -77 186 -97 209 -14 14 -34 17 -125 17 -78 0 -110 -4 -112 -12 -3 -7
-7 -28 -10 -46 l-6 -33 75 2 c46 2 79 -1 86 -8 6 -6 30 -56 53 -110 50 -118
81 -164 177 -267 83 -89 151 -138 270 -195 46 -22 98 -54 116 -71 18 -17 62
-90 99 -163 87 -172 101 -197 206 -353 169 -252 365 -457 594 -621 102 -73
387 -228 513 -278 341 -138 788 -201 1152 -165 241 25 540 103 727 192 384
180 691 444 919 788 105 159 109 173 14 47 -270 -359 -555 -605 -874 -757
-336 -160 -659 -233 -1032 -234 -220 0 -321 10 -525 56 -251 56 -540 173 -777
316 -205 123 -469 382 -660 647 -90 125 -195 314 -268 485 -18 41 -49 101 -69
133 l-37 58 27 82 c16 45 27 87 25 92 -2 6 -11 65 -21 131 -10 67 -28 153 -41
191 -23 74 -21 107 8 101 44 -8 88 -130 123 -338 12 -69 37 -156 73 -250 30
-80 67 -185 83 -235 39 -125 151 -343 230 -450 82 -109 329 -358 439 -441 214
-162 393 -262 565 -314 169 -51 363 -99 460 -115 139 -22 422 -30 565 -16 132
13 391 67 512 107 180 59 457 214 634 356 128 103 215 190 129 128 -43 -30
-155 -79 -250 -107 -69 -21 -113 -26 -236 -30 -239 -8 -403 23 -591 112 -241
114 -407 264 -585 530 -175 261 -294 576 -345 911 -22 150 -25 606 -5 754 17
123 64 338 98 448 42 142 142 365 217 490 190 317 404 508 688 612 262 97 603
79 836 -45 35 -18 60 -28 57 -23 -14 23 -212 161 -305 214 -152 85 -352 178
-457 213 -340 111 -775 132 -1107 51 -158 -38 -397 -117 -515 -170 -217 -98
-482 -292 -666 -490 -171 -183 -191 -210 -282 -368 -58 -101 -75 -142 -107
-258 -21 -77 -44 -150 -50 -164 -27 -53 -84 -238 -95 -305 -16 -98 -69 -295
-87 -323 -10 -16 -21 -22 -33 -19 -11 3 -21 0 -23 -7 -2 -6 -8 -8 -12 -4 -5 4
1 45 13 90 28 108 41 182 52 298 8 79 6 104 -7 147 l-16 52 55 123 c31 68 67
148 79 178 89 212 275 485 458 674 389 400 852 632 1401 702 152 19 495 18
643 -1 220 -29 501 -116 707 -220 102 -51 277 -164 380 -244 100 -78 312 -287
391 -386 62 -77 236 -331 263 -384 28 -53 30 -27 3 32 -29 65 -159 272 -235
377 -30 41 -107 128 -171 193 -353 361 -765 577 -1261 663 -181 31 -493 41
-665 20z m-1020 -842 c-22 -14 -53 -44 -70 -67 -30 -42 -30 -44 -36 -207 l-6
-165 -1 170 c0 94 -4 179 -7 190 -6 16 -5 17 4 5 10 -13 16 -10 43 20 36 40
87 80 102 80 5 0 -8 -12 -29 -26z m-304 -241 c-12 -20 -14 -14 -5 12 4 9 9 14
11 11 3 -2 0 -13 -6 -23z m-173 -40 c-24 -38 -53 -103 -69 -158 -7 -23 -4 -39
16 -77 34 -65 31 -73 -6 -18 -24 36 -29 53 -26 82 5 41 46 136 80 185 30 45
35 32 5 -14z m683 -36 c-13 -12 -20 -15 -16 -7 14 26 28 41 33 35 3 -3 -5 -16
-17 -28z m-580 -35 c-11 -16 -28 -35 -38 -43 -9 -8 -2 5 17 29 38 48 52 57 21
14z m553 -11 c-5 -4 -25 -14 -44 -21 -19 -8 -37 -17 -40 -20 -5 -7 -100 -20
-100 -14 0 1 38 15 85 29 47 15 88 31 91 37 3 5 9 7 12 3 3 -3 1 -9 -4 -14z
m-34 -66 c17 -9 30 -18 30 -21 0 -4 -59 23 -69 32 -10 9 13 3 39 -11z m65 -43
c-3 -3 -11 0 -18 7 -9 10 -8 11 6 5 10 -3 15 -9 12 -12z m-827 -142 c-11 -41
-38 -114 -59 -162 -32 -72 -38 -94 -34 -135 l4 -48 -11 53 c-10 49 -9 56 21
115 17 34 38 89 46 122 15 58 45 138 51 132 1 -1 -7 -36 -18 -77z m-27 -513
c-10 -9 -11 -8 -5 6 3 10 9 15 12 12 3 -3 0 -11 -7 -18z m-621 -304 c49 -13
69 -14 108 -5 49 11 67 7 42 -8 -23 -15 -116 -12 -177 6 -35 10 -78 15 -114
12 -33 -2 -54 -1 -47 4 22 13 126 9 188 -9z m130 -673 c0 -5 -4 -10 -10 -10
-5 0 -10 5 -10 10 0 6 5 10 10 10 6 0 10 -4 10 -10z m560 -215 c19 -14 30 -25
24 -25 -10 1 -73 50 -63 50 3 0 20 -11 39 -25z m-557 -32 c2 -5 7 -25 11 -45
6 -35 5 -38 -17 -38 -18 0 -27 7 -31 25 -4 14 -13 25 -21 25 -15 0 -20 21 -8
33 9 9 61 9 66 0z m1347 -120 c-133 -7 -278 -7 -273 0 2 4 77 6 166 5 89 -1
137 -3 107 -5z m-290 -17 c0 -2 -7 -7 -16 -10 -8 -3 -12 -2 -9 4 6 10 25 14
25 6z m-40 -20 c0 -7 -45 -33 -70 -40 -14 -4 -5 4 20 18 51 28 50 27 50 22z
m-543 -108 c-3 -7 -5 -2 -5 12 0 14 2 19 5 13 2 -7 2 -19 0 -25z m613 12 c8
-5 11 -10 5 -10 -5 0 -17 5 -25 10 -8 5 -10 10 -5 10 6 0 17 -5 25 -10z m-429
-309 c-14 -34 -21 -73 -22 -123 l-2 -73 -7 55 c-4 30 -5 64 -4 75 5 26 48 124
53 119 2 -2 -6 -26 -18 -53z m46 12 c-3 -10 -5 -4 -5 12 0 17 2 24 5 18 2 -7
2 -21 0 -30z m22 -73 c6 -19 7 -30 2 -25 -5 6 -13 24 -17 40 -9 39 0 30 15
-15z m583 -74 c114 -1 123 -2 91 -13 -21 -8 -59 -11 -92 -8 -89 9 -241 37
-241 46 0 4 26 0 58 -9 36 -10 103 -16 184 -16z m195 18 c-3 -3 -12 -4 -19 -1
-8 3 -5 6 6 6 11 1 17 -2 13 -5z m-407 -102 c0 -25 62 -137 93 -171 28 -30 29
-32 5 -15 -32 23 -78 99 -107 177 -11 32 -21 61 -21 65 1 12 29 -42 30 -56z
m-453 -24 c-3 -8 -6 -5 -6 6 -1 11 2 17 5 13 3 -3 4 -12 1 -19z"/>
<path d="M4570 7626 c-126 -40 -225 -78 -288 -111 -68 -35 -48 -30 54 13 50
21 144 56 209 76 136 43 167 55 145 55 -8 0 -62 -15 -120 -33z"/>
<path d="M6520 7635 c0 -2 15 -12 33 -20 l32 -16 -25 20 c-24 20 -40 26 -40
16z"/>
<path d="M6720 7600 c0 -5 6 -10 14 -10 8 0 18 5 21 10 3 6 -3 10 -14 10 -12
0 -21 -4 -21 -10z"/>
<path d="M5698 7593 c6 -2 18 -2 25 0 6 3 1 5 -13 5 -14 0 -19 -2 -12 -5z"/>
<path d="M5080 7583 c-62 -4 -251 -35 -246 -40 2 -2 53 3 112 11 60 9 143 20
184 25 72 8 44 11 -50 4z"/>
<path d="M5275 7582 c-17 -4 31 -7 110 -8 222 0 450 -41 637 -115 160 -63 341
-140 362 -155 10 -7 25 -10 34 -7 10 4 13 2 8 -5 -4 -7 7 -18 26 -28 18 -9 45
-26 60 -37 14 -11 31 -17 36 -13 6 3 14 1 18 -5 4 -8 3 -9 -4 -5 -7 4 -12 3
-12 -3 0 -15 18 -23 25 -11 24 39 389 -288 557 -500 220 -276 303 -447 377
-772 27 -116 69 -358 72 -408 0 -10 3 -9 9 5 7 14 8 9 4 -18 -4 -20 -3 -72 1
-114 l7 -78 24 28 c12 15 26 27 30 27 5 0 -6 -15 -22 -32 -31 -33 -31 -33 -25
-123 l6 -90 35 -2 c19 -1 53 -7 75 -12 33 -8 27 -9 -37 -5 -72 5 -78 4 -78
-13 0 -11 6 -20 13 -20 19 0 157 -24 157 -28 0 -5 -125 4 -143 11 -10 3 -23 2
-28 -3 -6 -6 13 -23 53 -48 128 -78 248 -185 248 -220 0 -8 19 -34 43 -57 54
-54 87 -98 87 -116 0 -8 -13 3 -29 24 -16 21 -43 53 -61 69 -17 17 -42 51 -55
76 -30 57 -108 130 -208 191 -79 49 -121 50 -45 1 24 -15 45 -28 48 -28 25 -4
178 -125 157 -125 -8 0 -52 35 -83 67 -23 25 -92 53 -112 46 -7 -3 -22 5 -32
18 l-20 22 0 -27 c0 -19 21 -50 74 -110 41 -46 102 -126 136 -177 64 -96 85
-126 134 -185 l29 -35 30 48 c29 46 107 204 107 217 0 3 -6 6 -14 6 -8 0 -18
5 -22 11 -5 8 1 10 18 6 23 -6 25 -3 36 51 16 77 15 102 -3 102 -9 0 -12 6 -8
16 4 12 7 13 14 3 17 -29 24 8 22 125 -2 187 -35 358 -94 484 -17 35 -34 74
-39 88 -6 15 -15 22 -22 18 -7 -4 -8 -3 -4 4 10 16 -24 72 -44 72 -13 0 -13 1
0 10 13 9 7 14 -12 11 -4 0 -5 5 -2 12 5 14 -39 77 -120 171 -27 31 -117 117
-200 190 -83 73 -158 146 -166 162 -31 63 -136 234 -198 324 -210 306 -430
513 -752 707 -241 145 -542 252 -844 299 -107 16 -338 26 -381 16z m2426
-1975 c-10 -9 -11 -8 -5 6 3 10 9 15 12 12 3 -3 0 -11 -7 -18z m53 -156 c-26
-39 -49 -71 -52 -71 -2 0 2 10 10 23 63 97 83 126 86 123 2 -2 -18 -36 -44
-75z m283 -32 c-32 -26 -36 -33 -26 -52 9 -20 9 -20 -4 -4 -18 21 -26 21 -49
0 -10 -9 -20 -14 -22 -12 -6 6 128 107 133 102 3 -2 -12 -17 -32 -34z m-37
-92 c0 -13 -7 -32 -16 -43 -15 -18 -15 -18 -5 3 6 12 11 31 11 42 0 12 2 21 5
21 3 0 5 -10 5 -23z m-345 -25 l-28 -27 24 31 c13 17 26 30 28 27 3 -2 -8 -16
-24 -31z m259 16 c-38 -43 -133 -96 -187 -104 -28 -4 -56 -7 -60 -6 -4 1 -17
-2 -27 -8 -13 -7 -20 -7 -20 -1 0 12 20 17 94 25 52 6 158 59 190 95 11 12 21
21 24 21 3 0 -3 -10 -14 -22z m51 -112 c0 -30 -3 -49 -7 -43 -14 21 -8 97 6
97 1 0 1 -24 1 -54z m-42 17 c-7 -2 -19 -2 -25 0 -7 3 -2 5 12 5 14 0 19 -2
13 -5z m-98 -13 c-27 -3 -69 -15 -93 -25 -24 -9 -45 -15 -48 -13 -10 11 103
46 146 45 l45 0 -50 -7z m-156 -44 c-15 -13 -49 -25 -49 -17 0 5 8 12 18 14
24 6 36 8 31 3z m451 -46 c8 -5 12 -11 10 -14 -3 -2 -14 2 -24 10 -22 15 -10
19 14 4z m9 -94 c-5 -5 -117 -9 -139 -5 -8 1 19 5 60 8 73 6 88 5 79 -3z
m-389 -16 c8 -5 11 -10 5 -10 -5 0 -17 5 -25 10 -8 5 -10 10 -5 10 6 0 17 -5
25 -10z m260 -73 c-3 -23 -6 -79 -5 -124 l1 -82 44 -40 c25 -22 42 -42 39 -45
-3 -3 -27 16 -53 41 l-47 47 1 66 c3 111 12 202 20 190 4 -6 4 -30 0 -53z
m-260 -73 c7 -8 -53 18 -67 29 -7 5 -13 13 -13 18 0 7 63 -30 80 -47z m284
-334 c-7 -6 -24 22 -23 40 0 9 6 5 14 -10 7 -14 11 -27 9 -30z m-14 -21 c0 -6
-4 -7 -10 -4 -5 3 -10 11 -10 16 0 6 5 7 10 4 6 -3 10 -11 10 -16z"/>
<path d="M5798 7573 c7 -3 16 -2 19 1 4 3 -2 6 -13 5 -11 0 -14 -3 -6 -6z"/>
<path d="M6660 7556 c0 -2 17 -15 38 -27 47 -29 170 -119 242 -177 l55 -44
-57 54 c-32 30 -104 87 -162 126 -98 68 -116 78 -116 68z"/>
<path d="M4798 7533 c7 -3 16 -2 19 1 4 3 -2 6 -13 5 -11 0 -14 -3 -6 -6z"/>
<path d="M4758 7523 c7 -3 16 -2 19 1 4 3 -2 6 -13 5 -11 0 -14 -3 -6 -6z"/>
<path d="M6020 7516 c0 -3 17 -10 38 -17 59 -19 232 -94 330 -143 82 -41 247
-146 347 -221 22 -17 34 -22 26 -12 -23 29 -321 223 -410 267 -72 36 -309 130
-326 130 -3 0 -5 -2 -5 -4z"/>
<path d="M4668 7503 c7 -3 16 -2 19 1 4 3 -2 6 -13 5 -11 0 -14 -3 -6 -6z"/>
<path d="M7796 7495 c-19 -15 -14 -35 10 -35 8 0 14 10 14 25 0 29 1 29 -24
10z"/>
<path d="M4565 7476 c-153 -51 -445 -190 -445 -212 0 -3 19 7 43 21 87 54 300
147 425 186 34 11 62 22 62 24 0 8 -12 5 -85 -19z"/>
<path d="M4174 7454 c-18 -14 -18 -15 4 -4 12 6 22 13 22 15 0 8 -5 6 -26 -11z"/>
<path d="M4110 7420 c-9 -6 -10 -10 -3 -10 6 0 15 5 18 10 8 12 4 12 -15 0z"/>
<path d="M2856 7375 c-3 -9 0 -15 9 -15 8 0 15 7 15 15 0 8 -4 15 -9 15 -5 0
-11 -7 -15 -15z"/>
<path d="M4023 7369 c-35 -22 -46 -37 -15 -20 22 13 58 40 52 41 -3 0 -20 -10
-37 -21z"/>
<path d="M7315 7380 c-3 -5 1 -10 9 -10 9 0 16 5 16 10 0 6 -4 10 -9 10 -6 0
-13 -4 -16 -10z"/>
<path d="M7045 7260 c10 -11 20 -20 23 -20 3 0 -3 9 -13 20 -10 11 -20 20 -23
20 -3 0 3 -9 13 -20z"/>
<path d="M3820 7233 c-23 -24 -23 -25 -3 -15 22 12 38 30 31 37 -2 2 -14 -8
-28 -22z"/>
<path d="M4084 7244 c-18 -14 -18 -15 4 -4 12 6 22 13 22 15 0 8 -5 6 -26 -11z"/>
<path d="M8025 7210 c-3 -5 1 -20 9 -32 l16 -22 0 26 c0 29 -15 45 -25 28z"/>
<path d="M6580 7181 c0 -5 28 -30 63 -54 34 -25 80 -62 102 -81 22 -20 45 -36
50 -36 6 0 0 8 -11 18 -12 9 -46 37 -75 62 -79 67 -129 102 -129 91z"/>
<path d="M3724 7148 l-19 -23 23 19 c12 11 22 21 22 23 0 8 -8 2 -26 -19z"/>
<path d="M7155 7150 c10 -11 20 -20 23 -20 3 0 -3 9 -13 20 -10 11 -20 20 -23
20 -3 0 3 -9 13 -20z"/>
<path d="M7330 7126 c0 -19 35 -78 56 -95 55 -43 70 -7 20 47 -19 22 -76 58
-76 48z"/>
<path d="M3629 7063 l-24 -28 28 24 c25 23 32 31 24 31 -2 0 -14 -12 -28 -27z"/>
<path d="M6033 7073 c9 -2 25 -2 35 0 9 3 1 5 -18 5 -19 0 -27 -2 -17 -5z"/>
<path d="M6223 7073 c9 -2 23 -2 30 0 6 3 -1 5 -18 5 -16 0 -22 -2 -12 -5z"/>
<path d="M7237 7055 c10 -13 22 -25 27 -25 5 0 -1 11 -14 25 -30 32 -36 32
-13 0z"/>
<path d="M5968 7063 c6 -2 18 -2 25 0 6 3 1 5 -13 5 -14 0 -19 -2 -12 -5z"/>
<path d="M6288 7063 c6 -2 18 -2 25 0 6 3 1 5 -13 5 -14 0 -19 -2 -12 -5z"/>
<path d="M5928 7053 c7 -3 16 -2 19 1 4 3 -2 6 -13 5 -11 0 -14 -3 -6 -6z"/>
<path d="M5852 7033 c-24 -8 -41 -17 -39 -19 4 -5 97 26 97 32 0 6 -11 4 -58
-13z"/>
<path d="M6017 7042 c6 -4 -10 -8 -35 -8 -69 -2 -245 -66 -376 -136 -10 -5
-27 -11 -37 -13 -23 -5 -71 -40 -63 -47 2 -3 -3 -11 -13 -19 -11 -9 -14 -10
-9 -1 16 27 -7 8 -100 -82 -65 -63 -94 -98 -89 -106 6 -9 4 -11 -5 -5 -10 6
-12 4 -7 -9 4 -9 3 -15 -2 -12 -21 14 -156 -204 -234 -377 -299 -663 -300
-1494 -2 -2112 58 -120 81 -159 184 -314 86 -129 303 -343 357 -353 10 -2 30
-14 43 -28 13 -14 21 -20 17 -13 -4 7 1 9 15 6 16 -5 18 -8 7 -15 -9 -7 -5 -8
14 -5 19 3 25 0 21 -10 -3 -7 -1 -13 5 -13 6 0 19 -3 29 -6 16 -6 16 -5 -2 9
-27 22 -17 21 33 -3 22 -11 51 -20 62 -20 12 0 18 -4 15 -11 -4 -6 -1 -9 6 -8
8 1 21 -1 29 -4 44 -18 107 -37 125 -36 l20 0 -20 10 c-17 8 -17 9 5 4 14 -2
30 -5 35 -5 6 0 3 -5 -5 -11 -11 -7 -1 -8 35 -4 28 4 106 7 175 8 69 2 136 6
150 11 14 5 21 5 17 0 -4 -4 -40 -14 -80 -21 l-72 -12 65 4 c36 3 94 17 130
31 57 22 51 25 -15 8 -18 -5 -19 -4 -2 6 10 6 38 13 63 15 35 2 62 14 117 51
67 47 92 74 67 74 -6 0 -8 -4 -5 -10 3 -6 1 -10 -4 -10 -6 0 -11 4 -11 10 0
12 40 34 48 26 3 -3 0 -6 -7 -6 -7 0 -9 -5 -5 -11 4 -7 33 16 75 57 68 67 139
184 139 230 0 10 11 60 24 111 33 129 95 213 158 213 18 0 20 2 8 10 -8 5 -25
7 -37 3 -32 -7 -29 5 5 19 26 11 24 12 -34 19 -87 11 -147 46 -236 136 -75 77
-107 129 -157 256 -13 31 -27 57 -31 57 -11 0 -64 -84 -99 -160 -23 -47 -31
-80 -31 -118 0 -62 39 -187 75 -240 14 -21 25 -51 25 -70 0 -18 7 -46 15 -63
12 -23 14 -38 6 -65 -5 -20 -7 -43 -4 -52 4 -10 2 -14 -3 -9 -5 5 -9 34 -10
65 -1 84 -17 151 -46 202 -30 51 -68 169 -68 208 0 42 -18 14 -56 -88 -34 -91
-35 -96 -24 -159 6 -36 20 -79 29 -96 10 -16 21 -43 24 -60 6 -29 6 -29 -5 -5
-49 107 -58 130 -58 153 0 42 -15 39 -59 -10 -40 -45 -41 -49 -43 -122 l-2
-76 -3 69 -4 68 -22 -18 -22 -19 21 25 c11 14 42 50 70 81 38 44 54 73 73 135
13 44 36 102 50 129 14 28 24 54 23 58 -4 13 100 206 126 234 l22 24 -24 82
c-63 208 -79 398 -52 592 37 258 76 377 174 521 114 171 209 243 331 252 55 4
67 7 67 22 0 14 -7 17 -36 13 -25 -4 -40 0 -49 11 -11 13 -11 16 0 16 8 0 2
11 -14 25 -15 14 -34 40 -43 57 -26 50 -64 205 -64 261 -1 58 -32 145 -77 210
-44 64 -192 209 -257 252 -68 46 -100 64 -73 42 24 -20 21 -31 -4 -13 -12 8
-29 12 -38 9 -11 -4 -10 -1 4 10 19 15 18 17 -39 42 -32 14 -60 24 -62 22 -2
-2 19 -14 47 -27 33 -14 47 -25 39 -30 -7 -4 -20 0 -31 11 -10 10 -25 16 -32
13 -8 -3 -19 2 -26 10 -6 7 -20 12 -29 9 -10 -2 -31 3 -47 11 l-30 16 35 1 35
1 -30 8 c-39 10 -294 12 -278 2z m338 -86 c33 -9 102 -40 154 -69 76 -42 104
-64 150 -120 105 -127 143 -207 192 -402 27 -109 25 -125 -31 -247 -28 -62
-56 -135 -60 -163 -7 -41 -75 -205 -85 -205 -8 0 15 70 34 101 12 20 26 62 31
94 5 31 32 107 60 168 40 89 50 123 50 165 0 28 -3 52 -8 52 -14 0 -119 -114
-147 -160 -15 -25 -50 -78 -76 -118 -27 -41 -49 -79 -49 -85 0 -5 -3 -8 -6 -5
-7 8 19 58 60 117 18 25 46 69 62 98 l28 52 -22 43 c-12 24 -33 63 -47 88 -37
65 -34 135 9 250 l34 90 -28 38 c-15 20 -43 51 -61 69 -36 33 -189 119 -189
106 0 -5 -4 -3 -8 4 -15 24 -172 48 -307 47 -127 0 -140 -2 -275 -46 -75 -24
-198 -88 -259 -134 -95 -72 -111 -82 -62 -34 90 85 261 175 397 210 66 16 105
19 239 16 111 -2 178 -8 220 -20z m-27 -186 c13 -16 19 -30 14 -30 -4 0 -16
14 -25 30 -10 17 -16 30 -14 30 2 0 13 -13 25 -30z m16 -87 c29 -25 82 -111
73 -120 -3 -2 -16 17 -28 43 -15 30 -42 60 -71 82 -27 18 -48 36 -48 38 0 8
44 -18 74 -43z m-910 -5 c-10 -13 -41 -45 -67 -73 -40 -41 -91 -113 -195 -271
-7 -10 -1 4 12 31 13 28 45 79 71 115 50 68 183 220 193 220 3 0 -3 -10 -14
-22z m1103 -140 c-3 -8 -6 -5 -6 6 -1 11 2 17 5 13 3 -3 4 -12 1 -19z m-35
-151 l51 -48 -7 -102 c-4 -56 -11 -118 -16 -137 -6 -24 -7 -11 -2 40 4 41 7
103 7 138 0 62 -1 65 -42 103 -44 41 -63 69 -62 91 0 7 5 2 10 -12 5 -14 33
-47 61 -73z m-812 5 c50 -32 101 -73 198 -161 20 -18 32 -38 31 -53 -1 -19 -2
-18 -10 8 -6 22 -29 46 -74 79 -36 27 -65 52 -65 57 0 5 -36 31 -80 59 -44 28
-80 53 -80 56 0 5 2 3 80 -45z m468 -87 c-3 -3 -9 2 -12 12 -6 14 -5 15 5 6 7
-7 10 -15 7 -18z m-1030 -60 c-6 -14 -13 -23 -15 -21 -5 5 15 46 22 46 3 0 -1
-11 -7 -25z m1110 -165 l-1 -45 -6 50 c-4 28 -15 64 -24 82 -9 18 -17 36 -17
40 1 4 12 -12 25 -37 16 -30 24 -60 23 -90z m-1147 83 c-12 -20 -14 -14 -5 12
4 9 9 14 11 11 3 -2 0 -13 -6 -23z m880 -80 c22 -20 37 -38 35 -40 -3 -3 -21
11 -41 31 -20 20 -40 34 -44 32 -5 -3 -6 7 -3 22 5 20 7 22 10 9 2 -10 22 -35
43 -54z m-905 20 c-8 -15 -15 -25 -16 -21 0 12 23 58 27 54 3 -2 -2 -17 -11
-33z m779 -33 c-3 -5 -12 -10 -18 -10 -7 0 -6 4 3 10 19 12 23 12 15 0z m-102
-17 c-7 -2 -19 -2 -25 0 -7 3 -2 5 12 5 14 0 19 -2 13 -5z m771 -50 c-5 -45 1
-84 24 -178 17 -66 33 -133 36 -150 7 -30 6 -30 -11 -9 -10 12 -56 44 -103 70
-96 55 -183 141 -224 222 -32 63 -67 80 -134 64 -31 -7 -52 -7 -62 0 -13 8
-13 9 1 5 8 -3 39 1 68 9 50 13 55 12 92 -9 21 -12 39 -29 39 -37 0 -24 43
-91 90 -143 25 -27 76 -65 119 -89 42 -22 84 -48 94 -56 20 -17 21 -10 6 38
-43 146 -56 219 -46 269 5 28 11 51 13 51 2 0 1 -26 -2 -57z m43 -85 c-3 -7
-5 -2 -5 12 0 14 2 19 5 13 2 -7 2 -19 0 -25z m-1573 -62 c-3 -15 -8 -25 -11
-23 -2 3 -1 17 3 31 3 15 8 25 11 23 2 -3 1 -17 -3 -31z m1563 12 c-3 -8 -6
-5 -6 6 -1 11 2 17 5 13 3 -3 4 -12 1 -19z m-197 -78 c0 -5 -8 -10 -17 -10
-15 0 -16 2 -3 10 19 12 20 12 20 0z m260 -150 c0 -5 -2 -10 -4 -10 -3 0 -8 5
-11 10 -3 6 -1 10 4 10 6 0 11 -4 11 -10z m-122 -39 c20 -10 48 -32 62 -47 18
-20 19 -24 5 -14 -11 8 -22 18 -25 22 -3 3 -25 18 -50 32 -52 30 -47 35 8 7z
m-279 -90 c49 -21 97 -46 106 -55 11 -11 34 -16 68 -16 52 0 79 -12 137 -59
14 -11 20 -21 15 -21 -6 0 -27 14 -48 31 -30 25 -50 32 -100 37 -41 3 -72 12
-92 27 -16 12 -55 32 -85 44 -58 23 -110 50 -98 51 4 0 48 -17 97 -39z m-1302
-108 c-3 -10 -5 -4 -5 12 0 17 2 24 5 18 2 -7 2 -21 0 -30z m856 -90 c-7 -2
-19 -2 -25 0 -7 3 -2 5 12 5 14 0 19 -2 13 -5z m50 -10 c-7 -2 -19 -2 -25 0
-7 3 -2 5 12 5 14 0 19 -2 13 -5z m246 -89 c86 -16 107 -27 35 -18 -58 7 -154
32 -154 40 0 4 10 3 23 -1 12 -4 55 -13 96 -21z m396 -3 c37 -6 42 -9 20 -10
-26 -2 -27 -3 -10 -11 11 -5 14 -9 7 -9 -7 -1 -29 6 -50 15 -26 12 -67 17
-137 17 -86 0 -92 1 -45 8 56 7 127 4 215 -10z m-1554 -93 c-3 -127 -11 -125
-11 2 0 57 3 100 6 97 4 -4 6 -48 5 -99z m1539 -62 c0 -2 -11 -6 -25 -8 -13
-3 -22 -1 -19 3 5 9 44 13 44 5z m-1533 -173 c-2 -16 -4 -3 -4 27 0 30 2 43 4
28 2 -16 2 -40 0 -55z m1573 39 c0 -4 -28 -18 -62 -31 -113 -43 -192 -84 -233
-122 -38 -35 -143 -95 -151 -86 -2 2 19 14 48 28 29 13 77 45 107 72 30 26 59
47 65 48 6 0 2 5 -9 10 -19 9 -18 9 3 5 12 -2 44 6 70 19 27 13 66 28 88 34
21 6 46 15 54 21 18 12 20 12 20 2z m-353 -68 c-3 -3 -12 -4 -19 -1 -8 3 -5 6
6 6 11 1 17 -2 13 -5z m86 -21 c-7 -2 -19 -2 -25 0 -7 3 -2 5 12 5 14 0 19 -2
13 -5z m-1296 -50 c-3 -10 -5 -4 -5 12 0 17 2 24 5 18 2 -7 2 -21 0 -30z
m1608 -45 c-16 -6 -36 -15 -43 -21 -7 -5 -15 -8 -18 -5 -6 7 57 38 76 37 8 0
2 -5 -15 -11z m45 -43 c0 -2 -10 -10 -22 -16 -21 -11 -22 -11 -9 4 13 16 31
23 31 12z m-550 -19 c0 -2 -7 -7 -16 -10 -8 -3 -12 -2 -9 4 6 10 25 14 25 6z
m470 -29 c0 -2 -12 -14 -27 -28 l-28 -24 24 28 c23 25 31 32 31 24z m-1543
-29 c-3 -8 -6 -5 -6 6 -1 11 2 17 5 13 3 -3 4 -12 1 -19z m823 18 c0 -2 -8
-10 -17 -17 -16 -13 -17 -12 -4 4 13 16 21 21 21 13z m-50 -40 c0 -2 -8 -10
-17 -17 -16 -13 -17 -12 -4 4 13 16 21 21 21 13z m-70 -41 c-40 -15 -109 -19
-128 -6 -8 5 6 6 35 4 26 -3 59 0 73 6 14 5 32 10 40 10 8 0 -1 -7 -20 -14z
m-177 -12 c-13 -2 -35 -2 -50 0 -16 2 -5 4 22 4 28 0 40 -2 28 -4z m447 -106
c0 -2 -12 -14 -27 -28 l-28 -24 24 28 c23 25 31 32 31 24z m442 -64 c-6 -10
-21 -27 -33 -38 -19 -16 -18 -14 4 13 15 19 27 38 27 44 0 6 3 9 6 6 3 -4 1
-15 -4 -25z m404 -173 c15 -47 30 -90 35 -96 4 -5 24 -41 43 -80 41 -80 46
-141 21 -239 -47 -177 -216 -341 -433 -419 -83 -29 -94 -31 -232 -30 -125 0
-160 4 -250 28 -259 67 -466 218 -660 480 -62 85 -148 226 -137 226 3 0 22
-29 42 -65 91 -163 307 -401 443 -490 90 -57 199 -108 219 -101 9 4 11 2 7 -6
-5 -7 0 -9 14 -6 13 4 22 1 22 -5 0 -6 3 -8 6 -5 3 4 20 0 38 -7 56 -24 150
-30 177 -11 14 8 42 17 64 18 37 3 40 6 50 43 7 23 14 34 19 27 4 -6 2 -21 -4
-33 -13 -23 -7 -49 11 -49 8 0 8 5 -2 16 -11 13 -9 14 14 9 27 -7 39 8 15 19
-7 2 -2 4 11 3 20 -2 26 6 40 43 9 25 21 52 26 60 6 8 15 26 22 40 24 53 12 1
-16 -65 -30 -70 -32 -97 -5 -61 10 15 14 16 15 5 0 -10 2 -10 6 -1 2 6 9 12
15 12 6 0 27 13 47 29 20 15 41 26 47 24 6 -2 14 5 17 17 6 25 34 27 40 3 3
-10 6 0 7 22 1 22 4 32 7 23 6 -22 12 -23 28 -1 11 15 14 15 37 -8 22 -22 26
-23 39 -10 11 13 11 14 -3 9 -16 -7 -38 8 -38 25 0 5 8 3 17 -4 9 -8 14 -9 10
-3 -4 6 2 19 13 29 17 15 20 16 20 3 0 -9 7 -19 16 -22 8 -3 13 -2 10 3 -3 5
1 26 8 47 8 22 15 32 15 23 2 -32 31 -30 51 3 10 17 17 35 14 39 -2 4 1 11 7
15 8 5 9 3 4 -6 -6 -9 -4 -11 4 -5 7 4 11 18 8 31 -2 13 -1 21 4 18 13 -7 29
65 29 129 0 49 -7 72 -45 147 -25 48 -55 121 -66 162 -11 40 -31 93 -45 117
-33 60 -30 65 6 11 17 -25 42 -83 56 -130z m-1706 65 c0 -5 -5 -3 -10 5 -5 8
-10 20 -10 25 0 6 5 3 10 -5 5 -8 10 -19 10 -25z m30 -70 c0 -5 -5 -3 -10 5
-5 8 -10 20 -10 25 0 6 5 3 10 -5 5 -8 10 -19 10 -25z m39 -72 c12 -24 19 -43
16 -43 -5 0 -45 75 -45 86 0 11 6 2 29 -43z m471 42 c0 -2 -10 -9 -22 -15 -22
-11 -22 -10 -4 4 21 17 26 19 26 11z m631 -279 c-6 -8 -24 -19 -39 -25 -18 -8
-42 -38 -74 -94 -64 -112 -120 -177 -196 -227 -59 -39 -67 -42 -110 -35 -80
11 -126 25 -152 46 l-25 20 25 -13 c14 -7 61 -20 105 -30 78 -16 81 -16 123 4
24 11 66 43 93 70 66 66 159 205 159 238 0 6 -30 11 -72 12 l-73 1 90 7 c55 3
102 12 120 22 37 21 40 22 26 4z m221 -100 c2 -19 0 -32 -4 -30 -8 5 -12 64
-4 64 2 0 6 -15 8 -34z m-182 -73 c-10 -16 -11 -15 -6 7 3 14 6 34 7 45 1 13
3 11 6 -7 2 -15 -1 -35 -7 -45z m210 -8 c0 -5 -5 -3 -10 5 -5 8 -10 20 -10 25
0 6 5 3 10 -5 5 -8 10 -19 10 -25z m310 -12 c0 -5 -7 -17 -15 -27 -15 -20 -20
-10 -9 18 6 16 24 22 24 9z m-552 -48 c-12 -25 -25 -45 -29 -45 -4 0 4 20 18
45 13 25 27 45 29 45 2 0 -6 -20 -18 -45z m590 -65 c-7 -10 -14 -17 -17 -15
-4 4 18 35 25 35 2 0 -1 -9 -8 -20z m-358 -10 c0 -5 -4 -10 -10 -10 -5 0 -10
5 -10 10 0 6 5 10 10 10 6 0 10 -4 10 -10z m-553 -136 c-3 -3 -12 -4 -19 -1
-8 3 -5 6 6 6 11 1 17 -2 13 -5z m723 -14 c0 -17 -41 -33 -54 -20 -8 8 -7 10
5 5 10 -4 23 0 30 9 17 18 19 19 19 6z m-665 -14 c-11 -8 -24 -12 -28 -9 -11
7 12 23 32 23 11 0 9 -4 -4 -14z m85 -1 c-28 -16 -80 -21 -64 -6 8 8 31 14 79
19 6 1 -1 -5 -15 -13z"/>
<path d="M6665 6613 c-22 -59 -29 -95 -30 -148 0 -65 3 -75 44 -145 25 -41 46
-77 48 -79 2 -3 26 19 54 48 l51 53 -7 51 c-10 74 -50 183 -91 245 -19 28 -35
52 -37 52 -1 0 -16 -35 -32 -77z"/>
<path d="M6689 3553 c-13 -16 -12 -17 4 -4 9 7 17 15 17 17 0 8 -8 3 -21 -13z"/>
<path d="M6525 3510 c-3 -5 -1 -10 4 -10 6 0 11 5 11 10 0 6 -2 10 -4 10 -3 0
-8 -4 -11 -10z"/>
<path d="M6470 3479 c0 -5 5 -7 10 -4 6 3 10 8 10 11 0 2 -4 4 -10 4 -5 0 -10
-5 -10 -11z"/>
<path d="M3574 7008 l-19 -23 23 19 c21 18 27 26 19 26 -2 0 -12 -10 -23 -22z"/>
<path d="M6325 7020 c-3 -6 1 -7 9 -4 18 7 21 14 7 14 -6 0 -13 -4 -16 -10z"/>
<path d="M7286 6993 c55 -87 67 -103 71 -99 6 5 -75 126 -84 126 -3 0 3 -12
13 -27z"/>
<path d="M5723 6981 c-62 -27 -100 -51 -53 -32 53 20 135 60 125 60 -5 0 -38
-12 -72 -28z"/>
<path d="M6825 6980 c10 -11 20 -20 23 -20 3 0 -3 9 -13 20 -10 11 -20 20 -23
20 -3 0 3 -9 13 -20z"/>
<path d="M3709 6953 c-13 -16 -12 -17 4 -4 9 7 17 15 17 17 0 8 -8 3 -21 -13z"/>
<path d="M3420 6860 c-12 -17 -19 -34 -16 -37 3 -4 6 -2 6 3 0 6 9 20 21 33
12 12 19 25 16 27 -3 3 -15 -9 -27 -26z"/>
<path d="M7380 6850 c6 -11 13 -20 16 -20 2 0 0 9 -6 20 -6 11 -13 20 -16 20
-2 0 0 -9 6 -20z"/>
<path d="M3535 6770 c-10 -11 -16 -22 -14 -24 2 -2 12 7 22 20 22 29 17 32 -8
4z"/>
<path d="M7401 6753 c-1 -7 13 -34 29 -60 17 -26 30 -55 30 -64 0 -10 5 -21
11 -25 8 -4 9 1 4 17 -8 26 -46 101 -56 109 -3 3 -9 12 -12 20 -3 8 -6 10 -6
3z"/>
<path d="M7490 6669 c12 -23 24 -39 26 -36 5 5 -35 77 -42 77 -3 0 5 -18 16
-41z"/>
<path d="M990 6626 c-13 -17 -7 -46 9 -46 15 0 42 31 38 44 -6 17 -33 18 -47
2z"/>
<path d="M7497 6586 c-5 -12 -3 -15 5 -10 8 5 9 1 4 -12 -5 -14 -4 -16 4 -7 8
7 9 17 3 28 -9 16 -10 16 -16 1z"/>
<path d="M3396 6558 l-18 -33 21 25 c18 22 26 40 18 40 -1 0 -11 -15 -21 -32z"/>
<path d="M7572 6513 c53 -100 80 -145 84 -140 2 2 -10 28 -28 58 -18 30 -42
74 -52 97 -10 23 -22 42 -27 42 -4 0 7 -26 23 -57z"/>
<path d="M3080 6525 c-7 -9 -8 -15 -2 -15 5 0 12 7 16 15 3 8 4 15 2 15 -2 0
-9 -7 -16 -15z"/>
<path d="M3360 6499 c-7 -11 -10 -23 -7 -25 2 -2 9 7 15 21 14 30 7 33 -8 4z"/>
<path d="M3145 6438 c-14 -29 -20 -45 -13 -34 47 69 56 86 48 86 -5 0 -21 -24
-35 -52z"/>
<path d="M3017 6430 c-10 -16 -23 -35 -30 -42 -7 -7 -19 -22 -27 -33 -14 -20
-14 -20 7 -2 26 23 78 96 71 102 -2 2 -12 -9 -21 -25z"/>
<path d="M3320 6420 c-11 -22 -18 -40 -15 -40 2 0 14 18 25 40 11 22 18 40 15
40 -2 0 -14 -18 -25 -40z"/>
<path d="M3101 6338 c-10 -30 -9 -31 4 -14 8 11 15 26 15 33 0 22 -8 14 -19
-19z"/>
<path d="M7601 6294 c0 -11 3 -14 6 -6 3 7 2 16 -1 19 -3 4 -6 -2 -5 -13z"/>
<path d="M3071 6272 c-7 -16 -13 -39 -14 -53 -1 -13 -21 -43 -44 -67 -44 -43
-32 -43 19 0 18 15 32 42 42 83 17 65 15 82 -3 37z"/>
<path d="M7216 6225 c-17 -17 -36 -77 -36 -112 0 -34 35 -117 73 -170 57 -81
94 -155 115 -228 48 -164 81 -293 86 -330 l5 -40 -10 40 c-33 123 -42 148 -69
179 -64 73 -136 69 -171 -8 -9 -23 -35 -113 -56 -201 -36 -153 -38 -167 -37
-325 0 -117 5 -187 17 -240 35 -153 96 -229 174 -217 67 11 96 57 134 213 12
50 17 62 14 34 -6 -47 -40 -185 -77 -305 -11 -38 -51 -133 -88 -210 -37 -77
-73 -157 -80 -179 -15 -47 -8 -117 14 -151 14 -22 19 -23 36 -13 19 12 28 31
13 26 -9 -3 -13 5 -13 24 0 6 6 4 13 -7 20 -27 32 -14 66 76 64 167 141 518
171 774 15 131 12 462 -4 585 -26 186 -74 401 -127 563 -43 133 -57 165 -89
198 -41 43 -51 46 -74 24z m63 -165 c0 -10 -3 -8 -9 5 -12 27 -12 43 0 25 5
-8 9 -22 9 -30z m98 -194 c-5 -14 -47 148 -46 175 0 13 11 -19 25 -71 13 -52
23 -99 21 -104z m-108 90 c-3 -3 -11 5 -18 17 -13 21 -12 21 5 5 10 -10 16
-20 13 -22z m73 -104 c11 -23 19 -45 16 -47 -2 -2 -19 26 -36 63 -18 37 -25
58 -16 47 8 -11 25 -39 36 -63z m69 -72 c5 0 9 -15 8 -32 l-1 -33 -13 35 c-7
19 -13 44 -13 55 1 17 1 16 5 -2 2 -13 9 -23 14 -23z m-1 -97 c11 -31 19 -66
18 -77 -3 -19 -9 -4 -44 117 -3 9 -3 17 0 17 2 0 14 -25 26 -57z m57 -400 c-3
-10 -5 -2 -5 17 0 19 2 27 5 18 2 -10 2 -26 0 -35z m11 -303 c-5 -58 -13 -107
-15 -110 -3 -3 -3 20 1 50 3 30 7 118 7 195 2 139 2 139 10 55 5 -51 4 -127
-3 -190z m-1 -272 c-3 -8 -6 -5 -6 6 -1 11 2 17 5 13 3 -3 4 -12 1 -19z m-50
-140 c-3 -7 -5 -2 -5 12 0 14 2 19 5 13 2 -7 2 -19 0 -25z m-6 -59 c-5 -13
-10 -19 -10 -12 -1 15 10 45 15 40 3 -2 0 -15 -5 -28z m-8 -87 c-3 -29 -10
-52 -14 -52 -5 0 -9 -13 -9 -30 0 -39 -22 -138 -27 -123 -3 7 1 45 7 85 7 40
13 80 15 88 1 8 7 28 14 43 6 16 11 33 11 39 0 6 2 9 5 7 2 -3 2 -29 -2 -57z
m-39 -7 c-10 -21 -19 -58 -20 -84 -1 -25 -9 -80 -18 -122 -8 -41 -13 -86 -10
-100 5 -24 5 -24 -7 -2 -9 17 -9 37 0 85 22 116 23 124 13 108 -11 -17 -45
-175 -45 -205 1 -11 -1 -14 -4 -7 -4 9 -8 10 -18 2 -10 -9 -10 -3 1 27 14 41
18 82 4 48 -6 -16 -9 -17 -14 -5 -3 8 10 46 29 84 19 39 35 73 35 77 0 16 61
141 66 136 3 -3 -2 -22 -12 -42z m-114 -274 c0 -6 -4 -13 -10 -16 -5 -3 -10
-21 -11 -38 l-1 -32 -9 30 c-5 19 -5 31 1 33 6 2 10 10 10 18 0 8 5 14 10 14
6 0 10 -4 10 -9z m28 -126 c-3 -3 -9 2 -12 12 -6 14 -5 15 5 6 7 -7 10 -15 7
-18z"/>
<path d="M7640 6212 c0 -6 14 -20 30 -32 17 -12 30 -27 30 -34 0 -7 17 -28 37
-47 20 -18 31 -25 23 -14 -8 11 -21 25 -28 30 -7 6 -14 18 -15 26 -3 18 -77
86 -77 71z"/>
<path d="M8708 6193 c7 -3 16 -2 19 1 4 3 -2 6 -13 5 -11 0 -14 -3 -6 -6z"/>
<path d="M3231 6139 c-6 -18 -9 -34 -7 -36 2 -2 9 10 15 28 6 18 9 34 7 36 -2
2 -9 -10 -15 -28z"/>
<path d="M3166 6114 c-5 -14 -4 -15 9 -4 17 14 19 20 6 20 -5 0 -12 -7 -15
-16z"/>
<path d="M7371 6127 c-1 -5 17 -68 39 -142 79 -263 115 -456 129 -687 12 -197
-3 -476 -35 -656 -9 -46 -14 -88 -12 -93 2 -6 14 40 26 103 34 175 49 479 33
685 -6 93 -16 184 -21 203 -13 51 -50 240 -52 273 -1 15 -5 27 -8 27 -3 0 -11
26 -19 58 -7 31 -19 69 -27 84 -8 15 -14 37 -15 50 0 22 -37 111 -38 95z"/>
<path d="M7689 6096 c13 -16 51 -41 51 -33 0 2 -15 14 -32 27 -21 15 -28 17
-19 6z"/>
<path d="M7955 6040 c11 -13 31 -36 44 -50 l24 -25 -21 30 c-11 17 -30 39 -43
50 l-24 20 20 -25z"/>
<path d="M7750 6043 c0 -7 124 -128 138 -135 8 -3 46 -53 86 -113 15 -22 30
-38 33 -35 4 3 17 -15 30 -39 13 -24 23 -37 23 -29 0 20 -78 127 -158 216 -65
73 -152 150 -152 135z"/>
<path d="M2625 6020 c-10 -11 -16 -22 -14 -24 2 -2 12 7 22 20 22 29 17 32 -8
4z"/>
<path d="M3191 6014 c0 -11 3 -14 6 -6 3 7 2 16 -1 19 -3 4 -6 -2 -5 -13z"/>
<path d="M7161 5980 c23 -28 44 -48 47 -45 6 5 -69 93 -81 94 -5 1 11 -22 34
-49z"/>
<path d="M2709 5983 c-13 -16 -12 -17 4 -4 16 13 21 21 13 21 -2 0 -10 -8 -17
-17z"/>
<path d="M3176 5975 c-9 -26 -7 -32 5 -12 6 10 9 21 6 23 -2 3 -7 -2 -11 -11z"/>
<path d="M7770 5986 c0 -2 8 -10 18 -17 15 -13 16 -12 3 4 -13 16 -21 21 -21
13z"/>
<path d="M2618 5896 c-29 -36 -59 -63 -66 -60 -7 2 -10 -1 -7 -6 3 -5 -3 -22
-13 -37 -11 -16 -26 -39 -36 -53 -9 -14 -23 -35 -32 -47 -17 -24 -76 -175 -70
-180 2 -2 13 20 25 49 61 146 117 234 223 346 27 28 45 52 39 52 -5 0 -34 -29
-63 -64z"/>
<path d="M7920 5935 c14 -16 26 -32 28 -34 1 -2 4 -2 7 1 3 2 -10 18 -28 34
l-32 29 25 -30z"/>
<path d="M8030 5957 c0 -4 25 -39 55 -78 30 -39 55 -66 55 -60 0 5 -21 36 -46
68 -58 72 -64 79 -64 70z"/>
<path d="M7810 5946 c0 -2 8 -10 18 -17 15 -13 16 -12 3 4 -13 16 -21 21 -21
13z"/>
<path d="M3060 5924 c0 -10 5 -26 10 -34 8 -11 9 -8 6 14 -6 34 -16 47 -16 20z"/>
<path d="M7106 5894 c30 -42 35 -63 23 -85 -8 -16 -3 -38 27 -107 47 -111 59
-123 50 -52 -13 104 -69 242 -108 266 -6 4 -3 -6 8 -22z"/>
<path d="M2866 5886 c-60 -37 -143 -113 -176 -161 -35 -52 -36 -55 -10 -55 12
0 26 12 35 30 8 16 27 37 40 46 22 14 30 15 70 3 68 -20 61 -37 -22 -54 -54
-11 -38 -25 27 -25 71 0 101 22 119 86 9 34 7 45 -17 96 l-27 57 -39 -23z"/>
<path d="M7181 5814 c16 -49 33 -115 40 -147 13 -68 33 -67 23 1 -7 51 -56
187 -77 217 -8 10 -1 -22 14 -71z"/>
<path d="M7889 5862 c6 -12 16 -24 22 -28 8 -4 8 -1 0 14 -6 12 -16 24 -22 28
-8 4 -8 1 0 -14z"/>
<path d="M7200 5862 c0 -6 4 -13 8 -16 8 -5 46 -124 57 -178 3 -16 9 -28 14
-28 10 0 -3 77 -26 144 -15 47 -53 103 -53 78z"/>
<path d="M9073 5820 c0 -25 2 -35 4 -22 2 12 2 32 0 45 -2 12 -4 2 -4 -23z"/>
<path d="M7086 5790 c19 -33 34 -66 32 -71 -2 -6 -16 12 -31 40 -30 54 -58 83
-35 35 8 -16 20 -48 28 -71 7 -23 17 -40 21 -37 5 3 9 0 9 -7 0 -6 13 -33 29
-59 16 -26 31 -58 34 -71 3 -17 5 -12 6 13 2 58 -84 261 -120 283 -5 4 7 -21
27 -55z"/>
<path d="M8020 5810 c22 -31 35 -36 25 -9 -3 8 -15 20 -27 28 -20 13 -20 12 2
-19z"/>
<path d="M3076 5815 c-3 -9 -6 -22 -5 -28 0 -7 5 -1 10 12 5 13 8 26 5 28 -2
2 -6 -3 -10 -12z"/>
<path d="M7100 5821 c0 -6 4 -13 10 -16 6 -3 7 1 4 9 -7 18 -14 21 -14 7z"/>
<path d="M2456 5792 c-6 -10 5 -26 22 -30 10 -2 10 2 2 18 -12 22 -16 24 -24
12z"/>
<path d="M3072 5730 c-1 -25 -5 -56 -8 -70 -5 -21 -4 -22 6 -7 6 9 9 41 7 70
l-3 52 -2 -45z"/>
<path d="M8067 5741 c10 -18 24 -45 32 -60 8 -14 17 -28 20 -31 4 -3 12 -16
19 -30 l12 -25 -6 25 c-4 14 -12 32 -19 40 -7 8 -16 24 -19 35 -4 11 -18 34
-32 50 l-26 30 19 -34z"/>
<path d="M7023 5740 c40 -61 84 -139 109 -190 24 -48 27 -51 22 -20 -10 52
-39 113 -69 146 -15 16 -39 43 -52 59 -18 21 -21 23 -10 5z"/>
<path d="M7001 5709 c6 -13 22 -37 34 -54 38 -52 39 -61 4 -30 -18 17 -27 22
-20 13 7 -9 10 -21 7 -26 -5 -9 3 -22 69 -110 17 -22 35 -48 41 -58 10 -17 11
-16 9 9 -6 48 -46 139 -93 204 -45 65 -73 93 -51 52z m54 -125 c9 -15 12 -23
6 -20 -11 7 -35 46 -28 46 3 0 12 -12 22 -26z"/>
<path d="M7296 5695 c4 -22 11 -44 16 -50 10 -11 2 34 -13 70 -6 13 -6 5 -3
-20z"/>
<path d="M8200 5710 c6 -11 13 -20 16 -20 2 0 0 9 -6 20 -6 11 -13 20 -16 20
-2 0 0 -9 6 -20z"/>
<path d="M8070 5674 c0 -5 10 -38 21 -73 15 -44 24 -59 30 -50 13 20 11 37 -2
19 -9 -12 -10 -11 -6 8 3 12 1 20 -4 16 -5 -3 -9 1 -9 9 0 17 -29 87 -30 71z"/>
<path d="M8220 5671 c0 -5 5 -13 10 -16 6 -3 10 -2 10 4 0 5 -4 13 -10 16 -5
3 -10 2 -10 -4z"/>
<path d="M2662 5648 c-5 -7 -19 -31 -30 -53 l-20 -41 34 4 c31 4 34 7 34 37 0
18 3 40 6 49 7 19 -9 21 -24 4z"/>
<path d="M2768 5648 c9 -9 37 -12 82 -10 62 2 69 1 75 -18 4 -14 1 -28 -11
-41 -16 -18 -16 -19 9 -19 24 0 27 4 27 34 0 19 3 41 6 50 5 14 -7 16 -97 16
-82 0 -100 -3 -91 -12z"/>
<path d="M3406 5645 c-9 -26 -7 -32 5 -12 6 10 9 21 6 23 -2 3 -7 -2 -11 -11z"/>
<path d="M2462 5615 c-17 -37 -14 -45 4 -12 9 16 14 31 11 33 -2 2 -9 -7 -15
-21z"/>
<path d="M8245 5623 c4 -10 17 -45 28 -78 15 -40 23 -53 25 -39 3 21 -43 134
-54 134 -4 0 -3 -8 1 -17z"/>
<path d="M2312 5544 c-25 -79 -26 -84 -12 -84 6 0 10 8 10 18 0 10 7 39 16 65
9 26 14 52 12 59 -2 6 -14 -20 -26 -58z"/>
<path d="M2423 5520 c-12 -28 -19 -50 -17 -50 7 0 46 91 42 96 -2 2 -14 -19
-25 -46z"/>
<path d="M3034 5518 c-9 -39 -9 -48 4 -53 18 -7 19 -6 27 28 4 16 3 27 -3 27
-6 0 -12 10 -14 23 -2 15 -6 7 -14 -25z"/>
<path d="M7033 5529 c20 -27 23 -49 5 -31 -17 17 -32 15 -16 -2 7 -8 33 -39
58 -70 24 -30 46 -54 47 -52 15 15 -67 165 -96 174 -11 4 -10 -1 2 -19z"/>
<path d="M8128 5538 c-2 -7 9 -49 24 -93 16 -44 26 -69 23 -55 -17 85 -29 130
-36 130 -5 0 -6 7 -3 15 4 8 4 15 1 15 -3 0 -7 -6 -9 -12z"/>
<path d="M8188 5500 c2 -17 8 -28 12 -25 9 6 2 43 -9 50 -4 2 -5 -9 -3 -25z"/>
<path d="M6678 5493 c7 -3 16 -2 19 1 4 3 -2 6 -13 5 -11 0 -14 -3 -6 -6z"/>
<path d="M6980 5492 c0 -4 9 -15 20 -25 11 -9 20 -22 20 -28 0 -8 -6 -7 -17 3
-10 8 -30 19 -46 26 l-27 12 22 -31 c13 -17 36 -39 53 -49 16 -10 40 -28 53
-40 12 -11 26 -19 31 -16 5 3 8 -2 7 -11 0 -9 5 -18 12 -20 36 -13 -1 57 -75
142 -39 44 -53 53 -53 37z"/>
<path d="M2340 5469 c0 -5 5 -7 10 -4 6 3 10 8 10 11 0 2 -4 4 -10 4 -5 0 -10
-5 -10 -11z"/>
<path d="M8300 5470 c0 -8 5 -22 10 -30 9 -13 10 -13 10 0 0 8 -5 22 -10 30
-9 13 -10 13 -10 0z"/>
<path d="M6660 5460 c8 -5 24 -9 35 -9 l20 0 -20 9 c-11 5 -27 9 -35 9 -13 1
-13 0 0 -9z"/>
<path d="M8206 5461 c-7 -11 28 -114 36 -106 3 3 -1 20 -9 37 -9 16 -15 41
-15 54 0 26 -3 29 -12 15z"/>
<path d="M6875 5421 c17 -10 44 -27 61 -37 18 -10 66 -43 107 -71 62 -43 75
-49 74 -34 -1 11 -4 18 -9 15 -4 -2 -17 9 -29 25 -29 39 -113 91 -148 91 -15
0 -36 7 -47 15 -10 8 -23 14 -29 15 -5 0 4 -9 20 -19z"/>
<path d="M2063 5423 c9 -2 23 -2 30 0 6 3 -1 5 -18 5 -16 0 -22 -2 -12 -5z"/>
<path d="M8320 5410 c0 -5 7 -35 15 -67 42 -161 40 -435 -5 -605 -61 -232
-171 -397 -450 -673 -177 -175 -209 -217 -300 -390 -151 -288 -218 -382 -405
-573 -251 -259 -471 -413 -755 -532 -336 -140 -745 -227 -1100 -232 l-125 -2
105 -5 c112 -6 441 11 526 28 28 5 68 16 90 24 21 8 71 20 109 26 138 24 164
31 223 61 33 16 64 30 69 30 6 0 23 6 39 14 34 16 100 45 129 56 30 11 108 48
130 62 83 53 104 65 130 78 81 38 338 260 484 420 150 163 245 297 331 465
134 262 137 265 333 455 71 68 155 156 187 195 94 116 196 276 220 345 12 36
26 69 31 74 5 6 9 19 9 31 0 12 4 25 9 31 23 24 40 432 21 528 -19 101 -50
197 -50 156z"/>
<path d="M6640 5381 c0 -6 10 -12 23 -12 20 -1 20 -2 2 -6 -35 -9 -40 -22 -11
-33 34 -13 49 -13 41 0 -3 6 -16 10 -28 11 -15 1 -9 5 18 13 38 12 39 13 13
19 -14 4 -33 10 -42 13 -9 3 -16 1 -16 -5z"/>
<path d="M6894 5375 c11 -8 26 -15 33 -15 22 0 14 8 -19 19 -30 10 -31 9 -14
-4z"/>
<path d="M1733 5373 c9 -2 23 -2 30 0 6 3 -1 5 -18 5 -16 0 -22 -2 -12 -5z"/>
<path d="M8174 5352 c3 -5 10 -39 16 -77 6 -38 15 -76 20 -84 7 -11 8 -5 4 19
-14 92 -28 150 -36 150 -5 0 -7 -4 -4 -8z"/>
<path d="M6911 5331 c55 -18 162 -71 156 -78 -2 -2 -24 8 -48 21 -43 24 -216
72 -225 63 -3 -2 29 -17 71 -32 41 -15 74 -29 73 -31 -6 -5 -113 18 -122 27
-6 5 -19 9 -30 9 -21 -1 -21 -1 -1 -12 31 -18 281 -87 302 -83 10 2 20 4 22 4
3 1 -4 8 -15 16 -16 13 -16 14 -1 9 35 -12 15 7 -53 52 -60 40 -78 47 -127 50
l-58 3 56 -18z"/>
<path d="M3120 5320 c-9 -6 -10 -10 -3 -10 6 0 15 5 18 10 8 12 4 12 -15 0z"/>
<path d="M8240 5308 c0 -16 5 -28 11 -28 7 0 9 -11 5 -30 -3 -19 -2 -29 4 -25
14 9 12 37 -5 76 -14 34 -14 34 -15 7z"/>
<path d="M6630 5315 c0 -7 40 -23 78 -30 26 -6 26 -5 -4 8 -42 20 -74 29 -74
22z"/>
<path d="M6617 5284 c-13 -13 5 -24 40 -24 30 0 34 2 23 15 -13 15 -51 20 -63
9z"/>
<path d="M6765 5261 c-16 -7 -8 -13 45 -30 52 -17 57 -21 25 -16 -22 3 -58 7
-80 10 l-40 5 45 -12 45 -12 -35 -6 -35 -6 34 -7 c18 -4 57 -8 85 -8 28 -1 65
-5 81 -9 17 -4 -24 -6 -90 -3 -108 5 -119 4 -105 -10 22 -22 350 -33 350 -11
0 9 -12 14 -37 15 l-38 2 39 6 c40 6 63 31 29 31 -10 0 -54 10 -98 21 -44 12
-100 25 -125 30 -25 5 -52 11 -60 13 -8 3 -24 1 -35 -3z m50 -11 c13 -6 15 -9
5 -9 -8 0 -22 4 -30 9 -18 12 -2 12 25 0z m78 -17 c-7 -2 -21 -2 -30 0 -10 3
-4 5 12 5 17 0 24 -2 18 -5z"/>
<path d="M6614 5225 c2 -15 11 -21 37 -22 l34 -2 -30 13 -30 14 30 4 c29 3 29
4 -7 9 -33 4 -37 3 -34 -16z"/>
<path d="M1778 5233 c6 -2 18 -2 25 0 6 3 1 5 -13 5 -14 0 -19 -2 -12 -5z"/>
<path d="M3045 5190 c-12 -5 5 -7 45 -3 36 3 67 7 69 9 9 8 -95 2 -114 -6z"/>
<path d="M6622 5164 c-33 -23 -27 -34 21 -33 28 1 34 3 17 7 -23 4 -24 5 -5
13 l20 8 -20 0 c-17 1 -17 3 -5 11 8 5 10 10 5 10 -6 0 -21 -7 -33 -16z"/>
<path d="M2090 5160 c0 -6 44 -10 113 -10 76 0 107 3 97 10 -20 13 -210 13
-210 0z"/>
<path d="M6775 5120 c-4 -6 9 -11 32 -11 33 -2 30 -3 -17 -9 -60 -9 -167 -11
-135 -3 44 11 37 23 -14 23 -32 0 -50 -4 -46 -10 3 -5 14 -10 23 -10 13 0 13
-2 -4 -16 -17 -14 -6 -15 131 -9 266 10 346 17 342 29 -6 19 -300 35 -312 16z
m152 -6 c-3 -3 -12 -4 -19 -1 -8 3 -5 6 6 6 11 1 17 -2 13 -5z"/>
<path d="M6805 5058 c-44 -5 -108 -9 -142 -8 -39 1 -63 -3 -63 -9 0 -7 28 -11
73 -11 44 0 67 -4 58 -9 -10 -6 -6 -11 15 -19 17 -6 22 -11 12 -11 -9 -1 -20
-6 -24 -13 -5 -8 14 -10 72 -5 l79 5 -60 -14 c-62 -16 -95 -34 -60 -34 14 0
16 -3 8 -11 -6 -6 -35 -11 -64 -11 -29 0 -66 -6 -83 -14 l-31 -13 43 -1 c24 0
69 7 99 16 30 9 57 14 60 11 10 -11 -53 -35 -107 -41 -30 -4 -62 -11 -70 -16
-28 -18 38 -11 142 15 55 14 105 24 111 22 6 -2 -21 -12 -59 -22 -67 -18 -68
-19 -41 -30 l28 -11 -26 -12 c-14 -7 -38 -9 -52 -5 l-27 6 24 9 c36 13 17 20
-35 13 -46 -7 -50 -18 -10 -28 13 -3 10 -5 -11 -6 -18 0 -34 -7 -38 -16 -7
-21 62 -20 111 0 20 9 67 22 103 29 74 16 194 72 224 105 23 25 18 26 -20 6
-16 -8 -38 -15 -49 -14 -15 0 -11 5 15 17 47 23 85 50 78 57 -3 3 -29 -6 -59
-19 -64 -28 -190 -68 -196 -62 -2 2 20 12 49 21 71 23 168 69 193 90 l20 17
-20 -7 c-11 -4 -24 -8 -30 -9 -5 -2 -23 -9 -40 -16 -43 -18 -120 -26 -111 -11
4 6 20 11 36 11 35 0 126 34 147 55 13 13 2 15 -89 14 -57 -1 -139 -6 -183
-11z"/>
<path d="M2393 5033 c20 -2 54 -2 75 0 20 2 3 4 -38 4 -41 0 -58 -2 -37 -4z"/>
<path d="M3020 5013 c49 -17 120 -65 160 -108 14 -15 39 -36 55 -48 l30 -20
-30 33 c-66 72 -103 103 -160 131 -33 16 -69 29 -80 28 -11 0 0 -8 25 -16z"/>
<path d="M2115 5010 c27 -12 97 -12 115 0 10 7 -8 10 -60 9 -51 0 -69 -3 -55
-9z"/>
<path d="M6600 5010 c-13 -8 -12 -10 3 -10 9 0 17 -4 17 -10 0 -5 -8 -10 -17
-10 -14 0 -15 -2 -4 -9 11 -7 11 -9 0 -13 -29 -11 1 -19 43 -13 39 6 43 9 45
36 1 17 -3 29 -10 30 -7 0 -23 2 -37 5 -14 2 -32 -1 -40 -6z"/>
<path d="M6655 4930 c-18 -8 -18 -9 5 -9 14 0 34 4 45 9 18 8 18 9 -5 9 -14 0
-34 -4 -45 -9z"/>
<path d="M7070 4892 c0 -12 -29 -25 -163 -74 -65 -24 -111 -44 -102 -46 8 -2
13 -8 10 -13 -9 -13 -2 -12 56 11 28 12 53 19 55 17 15 -14 -193 -97 -243 -97
-14 0 -23 -6 -23 -16 0 -9 5 -12 12 -8 8 5 9 2 5 -9 -4 -10 -2 -17 4 -17 6 0
9 -7 5 -15 -8 -23 28 -19 122 14 85 30 111 27 68 -7 -15 -11 -49 -22 -86 -25
-34 -4 -69 -12 -78 -18 -13 -8 -3 -9 38 -5 43 4 51 3 36 -6 -11 -6 -29 -12
-40 -13 -12 -1 -25 -3 -30 -4 -6 0 -5 -6 1 -12 15 -15 108 25 97 42 -4 8 -3 9
4 5 29 -18 192 112 244 193 42 67 34 70 -29 9 -62 -58 -151 -123 -159 -115 -3
2 17 19 44 36 52 33 172 152 172 170 0 6 -4 11 -10 11 -5 0 -10 -4 -10 -8z
m-226 -178 c12 -5 7 -11 -21 -26 -66 -34 -83 -39 -76 -23 3 8 12 15 20 15 8 0
12 4 9 9 -4 5 6 14 21 19 16 6 29 11 30 11 1 1 8 -2 17 -5z m16 -31 c0 -9 -52
-35 -57 -29 -2 2 3 11 12 20 17 16 45 22 45 9z"/>
<path d="M7600 4872 c0 -4 7 -18 16 -31 9 -13 20 -37 24 -55 12 -45 51 -132
88 -196 17 -30 37 -70 43 -87 6 -18 14 -33 19 -33 4 0 -7 39 -26 87 -37 94
-39 103 -24 103 5 0 13 -12 16 -26 4 -14 10 -21 13 -15 4 6 7 -4 7 -22 1 -45
63 -190 79 -183 7 2 21 -10 31 -29 14 -27 21 -32 31 -23 8 6 12 17 9 24 -3 8
0 13 6 11 29 -6 16 37 -29 94 -26 34 -65 86 -85 116 -42 62 -54 76 -45 50 4
-11 3 -16 -4 -12 -5 4 -7 14 -4 24 3 11 -22 49 -76 114 -79 95 -89 105 -89 89z
m229 -324 c0 -9 -2 -9 -6 2 -4 8 -12 21 -20 28 -7 7 -13 18 -13 24 0 6 9 -1
20 -15 11 -14 20 -31 19 -39z m-2 -40 c-3 -8 -6 -5 -6 6 -1 11 2 17 5 13 3 -3
4 -12 1 -19z m34 -15 c13 -16 12 -17 -3 -4 -10 7 -18 15 -18 17 0 8 8 3 21
-13z m-11 -38 c7 -9 8 -15 2 -15 -5 0 -12 7 -16 15 -3 8 -4 15 -2 15 2 0 9 -7
16 -15z"/>
<path d="M7586 4786 c-3 -33 -2 -65 4 -76 15 -27 13 -47 -3 -26 -11 15 -15 3
-27 -91 -8 -59 -14 -115 -12 -123 1 -8 4 -62 6 -120 2 -69 9 -118 20 -142 9
-21 16 -60 16 -89 l0 -51 48 35 47 36 -3 68 c-2 37 -10 103 -18 146 -9 42 -14
85 -12 95 6 26 36 -123 43 -213 4 -44 7 -81 8 -82 1 -1 15 10 31 23 28 25 28
25 13 62 -9 20 -23 62 -32 92 -9 30 -23 75 -31 100 -9 25 -25 79 -36 120 -11
41 -29 106 -40 143 -11 37 -18 70 -16 73 6 6 44 -108 54 -160 4 -21 18 -68 32
-105 13 -36 31 -93 39 -126 16 -68 52 -155 63 -155 4 0 15 9 25 20 17 19 17
21 0 60 -10 22 -22 37 -28 33 -6 -3 -7 -1 -3 6 4 6 -2 28 -14 49 -23 38 -81
194 -75 200 1 2 11 -16 21 -40 20 -46 124 -260 131 -267 2 -3 11 3 20 12 16
16 15 21 -17 87 -19 38 -41 72 -50 75 -16 5 -155 280 -164 325 -3 14 -11 34
-19 44 -13 17 -15 14 -21 -38z m44 -376 c5 -30 9 -64 9 -75 -1 -11 -7 12 -14
50 -7 39 -20 97 -29 130 -9 32 -16 71 -15 85 1 26 32 -94 49 -190z m-41 67
c12 -39 33 -228 26 -235 -3 -3 -5 1 -5 9 -1 51 -30 223 -39 232 -13 13 -15 40
-2 32 5 -3 14 -20 20 -38z m209 -72 c-3 -3 -9 2 -12 12 -6 14 -5 15 5 6 7 -7
10 -15 7 -18z m16 -31 c3 -8 2 -12 -4 -9 -6 3 -10 10 -10 16 0 14 7 11 14 -7z"/>
<path d="M7085 4797 c-40 -68 -183 -192 -292 -252 -28 -16 -49 -33 -47 -37 4
-7 88 34 109 53 5 5 14 9 20 9 5 0 -6 -14 -25 -30 -19 -16 -30 -30 -23 -30 10
0 55 33 91 67 21 20 24 15 6 -12 -9 -14 -21 -22 -27 -18 -5 3 -7 1 -3 -5 3 -6
-6 -18 -21 -27 -16 -10 -39 -31 -52 -47 l-25 -31 50 36 c101 72 210 206 250
306 20 52 14 61 -11 18z"/>
<path d="M3306 4775 c14 -25 28 -45 30 -45 7 0 -35 78 -45 85 -6 3 2 -15 15
-40z"/>
<path d="M2337 4793 c-44 -4 -47 -6 -41 -26 4 -12 11 -24 15 -25 5 -2 7 -8 4
-13 -4 -5 -1 -17 4 -26 8 -14 10 -10 6 20 -2 21 -7 42 -10 47 -3 6 0 10 8 10
7 0 14 -6 14 -12 0 -18 67 -185 102 -258 16 -32 50 -89 75 -125 26 -37 43 -71
40 -77 -4 -7 -2 -8 4 -4 12 7 89 -71 84 -86 -1 -4 4 -8 12 -8 8 0 17 -7 20
-16 3 -9 13 -14 21 -11 9 4 12 1 8 -9 -4 -10 0 -12 11 -8 10 4 16 1 16 -9 0
-8 8 -21 18 -28 15 -13 16 -12 3 4 -12 15 -11 17 3 17 9 0 16 -5 16 -11 0 -6
7 -8 16 -5 8 3 12 2 9 -3 -3 -6 12 -22 32 -38 21 -15 42 -31 48 -36 5 -4 32
-24 59 -44 26 -21 43 -39 38 -41 -6 -2 11 -32 36 -67 26 -35 67 -99 91 -142
119 -213 233 -387 313 -480 166 -194 232 -261 353 -358 200 -161 476 -308 745
-398 186 -62 271 -84 370 -96 47 -5 96 -13 109 -17 17 -5 22 -4 17 4 -4 7 -1
12 9 12 9 0 13 -4 10 -10 -3 -5 4 -11 17 -12 13 0 34 -3 48 -5 69 -11 410 -12
515 -3 245 23 488 79 690 160 44 17 90 34 103 37 12 3 22 9 22 14 0 5 7 9 15
9 8 0 15 5 15 11 0 6 7 9 15 6 8 -4 17 -1 21 5 5 7 2 8 -6 3 -8 -5 -11 -4 -7
3 4 5 17 8 29 4 13 -3 19 -1 15 5 -4 6 5 15 19 22 31 14 37 14 29 1 -3 -6 1
-7 10 -3 11 4 13 8 5 13 -15 9 6 26 45 36 17 4 32 10 35 13 8 10 64 35 73 32
5 -1 6 3 3 8 -9 13 19 32 38 25 10 -4 16 -1 16 8 0 24 33 47 63 44 19 -2 25 0
18 7 -11 11 -5 18 54 61 43 32 341 327 365 362 8 12 35 50 60 85 54 78 68 102
72 131 2 14 9 23 20 22 14 -1 15 2 6 16 -9 14 -8 24 4 42 14 23 35 80 59 168
7 25 15 50 18 55 12 22 39 110 35 114 -4 5 -64 -124 -69 -150 -2 -9 -7 -38
-11 -64 -4 -30 -9 -42 -15 -34 -4 7 -6 16 -3 20 2 5 6 25 8 46 4 32 23 92 61
188 5 14 5 17 -2 10 -6 -5 -28 -50 -48 -100 -47 -111 -82 -168 -97 -159 -7 4
-8 3 -4 -4 7 -12 -22 -78 -31 -69 -2 3 3 18 13 34 40 64 -8 0 -78 -103 -82
-121 -97 -145 -81 -129 23 23 101 133 117 163 10 19 20 31 23 28 7 -7 -68
-117 -131 -191 -67 -79 -73 -85 -79 -79 -9 9 -65 -72 -64 -91 1 -11 -3 -20
-10 -20 -7 0 -19 -9 -28 -20 -9 -11 -13 -14 -9 -6 4 8 -44 -32 -108 -90 -63
-57 -140 -122 -171 -144 -31 -22 -56 -44 -57 -48 0 -5 6 -5 13 -1 9 5 9 4 1
-5 -9 -10 -17 -10 -34 -1 -15 8 -20 8 -16 1 4 -6 -9 -18 -31 -28 -21 -9 -48
-25 -59 -36 -12 -10 -31 -19 -42 -20 -11 0 -19 -4 -17 -7 2 -4 -9 -17 -25 -29
-17 -12 -30 -18 -30 -13 0 5 10 17 23 26 22 16 22 16 -5 4 -16 -6 -28 -16 -28
-22 -1 -13 -212 -104 -343 -148 -51 -16 -112 -30 -137 -31 -26 0 -37 -3 -26
-7 12 -4 -6 -10 -50 -18 -161 -27 -283 -35 -504 -35 -298 0 -422 17 -703 94
-59 16 -113 27 -119 23 -6 -4 -8 -3 -4 4 6 10 -83 42 -155 56 -14 3 -41 17
-60 30 -50 37 -127 76 -142 72 -6 -1 -8 -1 -3 2 4 2 -27 22 -70 43 -142 70
-349 213 -337 232 3 7 3 9 -2 5 -15 -14 -203 174 -306 307 -22 28 -66 84 -100
125 -118 147 -228 334 -286 490 -30 78 -41 92 -110 131 -63 36 -82 34 -22 -2
75 -44 89 -62 116 -139 14 -41 31 -81 37 -89 8 -11 8 -13 -2 -7 -14 9 -52 88
-59 125 -2 14 -8 30 -12 34 -12 12 -142 87 -151 87 -5 0 -15 6 -22 13 -7 7
-28 23 -47 36 -27 20 -35 21 -43 10 -8 -11 -9 -10 -4 3 4 13 -11 30 -52 62
-31 24 -66 53 -76 65 -20 22 -42 29 -30 9 4 -7 3 -8 -5 -4 -6 4 -9 12 -5 18 3
5 -5 22 -18 36 -39 43 -80 102 -71 102 5 0 33 -28 63 -62 73 -82 135 -140 201
-186 67 -48 129 -85 129 -79 0 3 -24 20 -52 38 -97 59 -166 118 -265 227 -159
175 -202 233 -203 275 0 17 1 17 16 3 8 -9 13 -20 9 -26 -6 -10 15 -50 28 -50
5 0 5 10 2 21 -5 15 -4 19 4 15 6 -4 11 -14 11 -23 0 -18 60 -126 66 -120 3 3
-5 21 -17 41 -12 20 -36 76 -54 124 -36 94 -32 92 -118 85z m40 -19 c-3 -3
-12 -4 -19 -1 -8 3 -5 6 6 6 11 1 17 -2 13 -5z m462 -591 c20 -15 41 -32 46
-39 6 -6 22 -14 36 -18 14 -3 35 -13 47 -23 12 -10 33 -26 47 -36 19 -14 25
-27 25 -55 l0 -37 -20 32 c-10 17 -28 37 -40 43 -11 6 -18 15 -15 21 4 5 1 9
-5 9 -6 0 -9 4 -5 9 9 16 -13 23 -36 10 -12 -6 -19 -7 -15 -1 8 13 -20 36 -34
27 -5 -3 -10 0 -10 7 0 19 -39 50 -53 42 -7 -4 -9 -4 -5 1 4 4 3 14 -3 22 -19
22 2 15 40 -14z m104 -90 c-10 -4 -10 -7 0 -18 6 -7 21 -25 32 -39 11 -15 26
-33 33 -41 21 -24 -2 -17 -32 8 -48 41 -67 98 -33 96 9 0 9 -2 0 -6z m-43 -28
c11 -13 10 -14 -4 -9 -9 3 -16 10 -16 15 0 13 6 11 20 -6z m173 -135 c6 -23
-5 -25 -36 -8 -21 11 -21 11 -2 19 30 11 32 11 38 -11z m92 -102 c20 -38 34
-68 31 -68 -2 0 -15 18 -27 40 -12 21 -25 37 -28 35 -4 -2 -7 4 -7 13 -1 9 -5
26 -9 37 -15 36 3 11 40 -57z m-52 22 c3 -11 1 -18 -4 -14 -5 3 -9 12 -9 20 0
20 7 17 13 -6z m137 -174 c0 -6 -11 6 -25 26 -14 20 -25 40 -25 44 0 5 11 -7
25 -26 14 -19 25 -39 25 -44z m49 -69 c-2 -3 -15 10 -28 27 l-24 31 28 -27
c16 -15 27 -29 24 -31z m4072 -30 c-10 -9 -11 -8 -5 6 3 10 9 15 12 12 3 -3 0
-11 -7 -18z m-4001 -119 c0 -6 -6 -5 -15 2 -8 7 -15 14 -15 16 0 2 7 1 15 -2
8 -4 15 -11 15 -16z m4000 2 c0 -5 -4 -10 -10 -10 -5 0 -10 5 -10 10 0 6 5 10
10 10 6 0 10 -4 10 -10z m-3910 -120 c0 -5 -5 -10 -11 -10 -5 0 -7 5 -4 10 3
6 8 10 11 10 2 0 4 -4 4 -10z m3850 -4 c0 -3 -4 -8 -10 -11 -5 -3 -10 -1 -10
4 0 6 5 11 10 11 6 0 10 -2 10 -4z m-182 -43 c-8 -10 -18 -26 -21 -35 -4 -10
-11 -18 -17 -18 -12 0 -8 8 23 53 10 16 22 26 25 23 3 -3 -2 -14 -10 -23z
m-3663 7 c3 -5 -1 -10 -10 -10 -9 0 -13 5 -10 10 3 6 8 10 10 10 2 0 7 -4 10
-10z m94 -39 c-1 -13 -2 -13 -6 2 -2 9 -8 17 -13 17 -4 0 -11 8 -14 17 -6 15
-4 15 14 -2 11 -10 19 -25 19 -34z m3711 29 c-6 -11 -15 -20 -20 -20 -6 0 -2
9 7 20 10 11 19 20 21 20 1 0 -2 -9 -8 -20z m-3682 -79 c3 -8 -1 -12 -9 -9 -7
2 -15 10 -17 17 -3 8 1 12 9 9 7 -2 15 -10 17 -17z m3552 -26 c0 -8 -4 -15
-10 -15 -5 0 -7 7 -4 15 4 8 8 15 10 15 2 0 4 -7 4 -15z m-3488 -15 c12 -11
17 -20 11 -20 -5 0 -18 9 -28 20 -10 11 -15 20 -11 20 4 0 16 -9 28 -20z
m3368 -3 c0 -2 -10 -12 -22 -23 l-23 -19 19 23 c18 21 26 27 26 19z m15 -47
c-3 -5 -12 -10 -18 -10 -7 0 -6 4 3 10 19 12 23 12 15 0z m-3265 -52 c0 -4 7
-8 15 -8 8 0 15 -4 15 -10 0 -5 -4 -10 -9 -10 -5 0 -16 -3 -24 -6 -11 -4 -13
1 -10 19 4 20 0 27 -19 33 -12 4 -26 7 -30 6 -4 -1 -5 5 -2 13 5 12 11 10 35
-7 16 -12 29 -25 29 -30z m63 -53 c8 -8 17 -12 19 -9 3 2 22 -9 43 -26 21 -16
42 -30 48 -30 6 0 8 -3 5 -6 -4 -3 -21 3 -40 13 -18 10 -38 18 -43 18 -15 0
-72 55 -58 55 6 0 18 -7 26 -15z m72 -74 c3 -5 1 -12 -5 -16 -5 -3 -10 1 -10
9 0 18 6 21 15 7z m49 -29 c2 -4 -4 -8 -14 -8 -10 0 -16 4 -14 8 3 4 9 8 14 8
5 0 11 -4 14 -8z m2726 -86 c0 -2 -9 -6 -20 -9 -11 -3 -18 -1 -14 4 5 9 34 13
34 5z m-2600 -56 c0 -5 -2 -10 -4 -10 -3 0 -8 5 -11 10 -3 6 -1 10 4 10 6 0
11 -4 11 -10z m1697 -237 c-9 -2 -15 -9 -12 -14 4 -5 1 -9 -4 -9 -12 0 -14 13
-4 23 3 4 13 6 22 6 13 -1 12 -2 -2 -6z m-687 -77 c0 -3 -4 -8 -10 -11 -5 -3
-10 -1 -10 4 0 6 5 11 10 11 6 0 10 -2 10 -4z m180 -46 c0 -5 -7 -7 -15 -4 -8
4 -15 8 -15 10 0 2 7 4 15 4 8 0 15 -4 15 -10z"/>
<path d="M7080 4712 c-26 -49 -65 -97 -148 -180 -117 -118 -124 -130 -33 -53
30 25 51 40 47 34 -4 -7 -4 -18 0 -24 4 -7 19 2 40 22 58 57 37 20 -28 -48
l-63 -66 52 37 c28 20 54 42 57 49 3 9 7 8 15 -3 8 -12 10 -11 9 5 0 11 16 56
36 100 20 44 36 75 36 69 0 -10 -26 -86 -54 -159 -17 -43 -61 -109 -88 -132
-13 -10 -32 -30 -43 -43 -10 -14 9 2 43 35 35 33 79 86 99 118 19 32 37 57 39
55 6 -7 -8 -48 -17 -48 -5 0 -9 -8 -8 -17 0 -11 3 -13 6 -5 2 6 8 10 13 7 4
-2 20 38 34 91 26 91 28 141 6 169 -5 6 -10 20 -12 32 -2 18 -10 8 -38 -45z
m37 -124 c-3 -8 -6 -5 -6 6 -1 11 2 17 5 13 3 -3 4 -12 1 -19z"/>
<path d="M6693 4756 c-48 -10 -81 -26 -55 -26 6 0 9 -7 6 -15 -4 -10 0 -15 13
-15 29 0 130 32 116 37 -7 2 -9 11 -6 19 6 16 -2 16 -74 0z"/>
<path d="M3067 4715 c3 -16 10 -39 14 -50 l8 -20 0 20 c0 11 -6 34 -14 50
l-14 30 6 -30z"/>
<path d="M2341 4640 c0 -8 4 -24 9 -35 5 -13 9 -14 9 -5 0 8 -4 24 -9 35 -5
13 -9 14 -9 5z"/>
<path d="M3088 4623 c-2 -10 -1 -36 3 -58 6 -37 6 -36 8 18 1 57 -3 73 -11 40z"/>
<path d="M7146 4563 c-10 -43 -24 -89 -31 -103 -7 -14 -10 -31 -7 -39 2 -8 0
-11 -5 -8 -6 4 -17 -13 -26 -36 -13 -34 -14 -38 -2 -23 11 14 15 16 15 5 1
-20 35 59 53 122 17 57 33 159 25 159 -2 0 -12 -35 -22 -77z"/>
<path d="M3122 4565 c0 -22 4 -53 8 -70 7 -27 8 -28 8 -5 0 14 -3 45 -7 70
l-8 45 -1 -40z"/>
<path d="M7182 4550 c-2 -25 -14 -72 -27 -105 -14 -33 -25 -64 -25 -70 0 -5
-7 -23 -15 -39 -9 -16 -14 -31 -11 -33 4 -5 36 61 36 76 0 6 5 11 10 11 12 0
13 -6 1 -28 -4 -9 -11 -30 -15 -47 l-6 -30 15 27 c23 41 47 169 42 230 -3 53
-3 53 -5 8z m-21 -137 c-12 -20 -14 -14 -5 12 4 9 9 14 11 11 3 -2 0 -13 -6
-23z"/>
<path d="M7205 4507 c0 -45 -3 -100 -7 -122 -7 -37 -6 -38 6 -16 15 27 22 206
9 214 -4 3 -8 -32 -8 -76z"/>
<path d="M2360 4575 c0 -5 5 -17 10 -25 5 -8 10 -10 10 -5 0 6 -5 17 -10 25
-5 8 -10 11 -10 5z"/>
<path d="M7245 4488 c0 -40 -3 -89 -7 -108 l-7 -35 14 30 c15 31 21 185 8 185
-5 0 -8 -33 -8 -72z"/>
<path d="M2406 4520 c3 -14 7 -35 8 -47 0 -11 4 -19 9 -16 10 6 8 24 -9 58
-12 25 -13 26 -8 5z"/>
<path d="M7481 4508 c0 -9 -4 -25 -7 -35 -5 -17 -5 -17 6 0 6 10 9 25 7 35 -4
15 -5 15 -6 0z"/>
<path d="M6795 4500 c-3 -5 -1 -10 4 -10 6 0 11 5 11 10 0 6 -2 10 -4 10 -3 0
-8 -4 -11 -10z"/>
<path d="M6920 4481 c0 -5 -12 -24 -27 -43 l-28 -33 41 35 c22 19 39 38 37 43
-6 10 -23 9 -23 -2z"/>
<path d="M2440 4450 c0 -5 5 -10 11 -10 5 0 7 5 4 10 -3 6 -8 10 -11 10 -2 0
-4 -4 -4 -10z"/>
<path d="M3140 4457 c0 -3 9 -30 19 -59 16 -46 33 -102 73 -238 31 -109 158
-374 219 -460 46 -64 53 -62 9 3 -65 96 -186 363 -214 474 -9 32 -34 108 -57
168 -38 103 -49 128 -49 112z"/>
<path d="M3090 4428 c0 -7 5 -20 10 -28 8 -12 10 -9 10 13 0 15 -4 27 -10 27
-5 0 -10 -6 -10 -12z"/>
<path d="M7461 4428 c0 -9 -4 -25 -7 -35 -5 -17 -5 -17 6 0 6 10 9 25 7 35 -4
15 -5 15 -6 0z"/>
<path d="M2466 4417 c3 -10 9 -15 12 -12 3 3 0 11 -7 18 -10 9 -11 8 -5 -6z"/>
<path d="M7527 4403 c-84 -467 -253 -768 -642 -1141 -64 -62 -119 -111 -122
-108 -3 3 12 19 33 37 56 47 200 194 264 269 83 98 91 115 14 30 -144 -159
-273 -281 -389 -370 -86 -66 -97 -76 -65 -60 20 10 23 10 13 0 -6 -7 -20 -13
-30 -14 -29 -2 -114 -57 -106 -68 3 -6 1 -8 -4 -5 -6 4 -76 -26 -155 -66 -206
-105 -353 -159 -549 -203 -208 -45 -587 -44 -856 3 -51 9 -93 20 -93 24 0 4
-22 12 -48 18 -27 5 -92 26 -147 46 -57 20 -106 33 -118 29 -11 -4 -17 -2 -14
4 9 13 -68 41 -94 35 -19 -5 -18 -7 12 -20 253 -110 565 -177 879 -189 365
-15 754 72 1070 239 118 62 141 77 135 87 -3 5 0 12 6 16 8 4 9 3 5 -4 -10
-17 7 -15 30 4 17 14 17 15 1 10 -11 -4 -16 -2 -12 5 4 6 14 8 23 4 18 -7 95
41 87 55 -3 4 9 18 27 30 l33 22 -30 -26 c-36 -31 -25 -34 16 -5 16 11 26 25
23 31 -4 7 -2 8 5 4 22 -14 193 141 386 350 112 122 254 310 315 417 29 52
124 157 141 157 10 0 0 103 -14 155 l-11 40 -7 -40 c-5 -23 -6 16 -5 93 2 72
2 132 1 132 -2 0 -5 -12 -8 -27z m-14 -353 c-3 -12 -8 -19 -11 -16 -5 6 5 36
12 36 2 0 2 -9 -1 -20z m-1053 -1095 c0 -2 -13 -11 -30 -20 -38 -19 -40 -11
-2 9 31 17 32 18 32 11z"/>
<path d="M2680 4376 c34 -36 171 -136 187 -136 4 0 -17 16 -47 36 -30 20 -82
59 -115 87 -47 40 -53 43 -25 13z"/>
<path d="M3069 4373 c-5 -16 -12 -34 -15 -42 -2 -8 14 -45 36 -83 23 -38 64
-119 91 -181 114 -255 317 -561 455 -687 34 -30 33 -28 -7 15 -76 83 -202 254
-269 365 -70 117 -292 550 -282 550 10 0 34 -44 112 -195 222 -434 337 -602
571 -831 138 -134 273 -232 444 -324 44 -24 105 -56 135 -73 39 -21 51 -25 40
-12 -14 17 -13 18 3 12 35 -13 15 3 -34 29 -28 14 -48 21 -44 15 3 -6 3 -11
-1 -11 -19 0 -282 164 -389 242 -16 13 -95 88 -175 168 -209 209 -331 376
-440 604 -31 67 -61 132 -65 146 -14 46 -76 161 -84 156 -9 -6 -36 63 -33 84
2 12 1 13 -7 1 -7 -11 -11 -10 -18 5 -5 11 -9 31 -8 47 0 15 -1 27 -2 27 -2 0
-8 -12 -14 -27z m1300 -1479 c14 -12 -19 -1 -35 12 -18 14 -18 14 6 3 14 -6
27 -13 29 -15z"/>
<path d="M7866 4370 c20 -33 26 -34 18 -3 -3 12 -12 24 -20 27 -12 5 -11 0 2
-24z"/>
<path d="M2500 4360 c30 -43 44 -47 17 -6 -12 19 -26 35 -30 36 -5 0 1 -13 13
-30z"/>
<path d="M3130 4380 c0 -8 9 -33 19 -55 l19 -40 -5 40 c-6 40 -33 87 -33 55z"/>
<path d="M2457 4345 c27 -38 173 -180 278 -270 111 -96 115 -99 115 -93 0 3
-60 58 -134 122 -74 64 -167 151 -207 194 -40 42 -63 64 -52 47z"/>
<path d="M6995 4359 c-11 -16 -1 -19 13 -3 7 8 8 14 3 14 -5 0 -13 -5 -16 -11z"/>
<path d="M7442 4330 c0 -14 2 -19 5 -12 2 6 2 18 0 25 -3 6 -5 1 -5 -13z"/>
<path d="M7176 4323 c-6 -14 -5 -15 5 -6 7 7 10 15 7 18 -3 3 -9 -2 -12 -12z"/>
<path d="M7065 4299 c-9 -17 -15 -33 -13 -35 3 -2 12 12 21 31 21 43 13 47 -8
4z"/>
<path d="M7081 4263 c-10 -26 -10 -27 4 -9 8 11 15 23 15 28 0 15 -7 8 -19
-19z"/>
<path d="M3170 4274 c0 -6 7 -19 16 -30 14 -18 14 -18 3 6 -14 31 -19 36 -19
24z"/>
<path d="M7416 4244 c-4 -14 -5 -28 -3 -31 3 -2 8 8 11 23 4 14 5 28 3 31 -3
2 -8 -8 -11 -23z"/>
<path d="M2880 4236 c0 -9 61 -38 67 -32 3 3 -7 10 -22 16 -15 6 -32 13 -36
16 -5 3 -9 3 -9 0z"/>
<path d="M7387 4143 c-4 -3 -7 -16 -6 -27 0 -19 1 -19 10 3 10 24 8 36 -4 24z"/>
<path d="M1232 4114 c-1 -15 3 -24 9 -22 6 2 10 7 10 11 -1 4 -1 14 -1 22 0
26 -16 16 -18 -11z"/>
<path d="M3001 3878 c7 -16 16 -28 20 -28 5 0 6 -6 3 -14 -3 -8 3 -23 14 -34
11 -11 22 -26 25 -33 4 -10 6 -9 6 3 1 9 -6 24 -15 32 -9 9 -17 22 -18 29 -1
7 -12 26 -24 43 l-22 29 11 -27z"/>
<path d="M3180 3870 c6 -11 13 -20 16 -20 2 0 0 9 -6 20 -6 11 -13 20 -16 20
-2 0 0 -9 6 -20z"/>
<path d="M2960 3856 c0 -2 8 -10 18 -17 15 -13 16 -12 3 4 -13 16 -21 21 -21
13z"/>
<path d="M7451 3812 c-33 -65 -52 -112 -47 -112 6 0 78 152 73 156 -2 2 -14
-18 -26 -44z"/>
<path d="M1380 3765 c0 -8 7 -15 15 -15 9 0 12 6 9 15 -4 8 -10 15 -15 15 -5
0 -9 -7 -9 -15z"/>
<path d="M7523 3718 c-10 -13 -29 -77 -20 -68 7 7 37 80 33 80 -2 0 -8 -6 -13
-12z"/>
<path d="M3127 3663 c3 -10 15 -30 25 -45 10 -14 18 -29 18 -33 0 -11 127
-200 144 -214 9 -8 16 -19 16 -25 1 -12 35 -53 65 -76 10 -8 -6 17 -36 55 -59
75 -120 167 -188 283 -43 71 -56 88 -44 55z"/>
<path d="M7482 3602 c-24 -48 -25 -58 -3 -23 12 18 21 37 19 42 -2 4 -9 -4
-16 -19z"/>
<path d="M2416 3597 c3 -10 9 -15 12 -12 3 3 0 11 -7 18 -10 9 -11 8 -5 -6z"/>
<path d="M3240 3396 c0 -2 8 -10 18 -17 15 -13 16 -12 3 4 -13 16 -21 21 -21
13z"/>
<path d="M5765 3350 c9 -14 101 -57 140 -64 18 -4 12 1 -15 11 -25 9 -65 27
-89 41 -24 13 -40 19 -36 12z"/>
<path d="M3760 3336 c0 -2 8 -10 18 -17 15 -13 16 -12 3 4 -13 16 -21 21 -21
13z"/>
<path d="M3700 3305 c13 -14 26 -25 28 -25 3 0 -5 11 -18 25 -13 14 -26 25
-28 25 -3 0 5 -11 18 -25z"/>
<path d="M6520 3300 c-9 -6 -10 -10 -3 -10 6 0 15 5 18 10 8 12 4 12 -15 0z"/>
<path d="M2330 3293 c0 -6 -8 -13 -17 -16 -17 -4 -17 -4 0 -12 24 -10 46 10
29 27 -8 8 -12 9 -12 1z"/>
<path d="M3752 3263 c6 -10 34 -38 62 -63 50 -43 49 -42 -9 18 -62 64 -73 74
-53 45z"/>
<path d="M5978 3263 c7 -3 16 -2 19 1 4 3 -2 6 -13 5 -11 0 -14 -3 -6 -6z"/>
<path d="M6045 3249 c22 -4 51 -8 65 -7 16 0 11 3 -15 9 -22 4 -51 8 -65 7
-16 0 -11 -3 15 -9z"/>
<path d="M6318 3243 c7 -3 16 -2 19 1 4 3 -2 6 -13 5 -11 0 -14 -3 -6 -6z"/>
<path d="M3390 3205 c19 -19 36 -35 39 -35 3 0 -10 16 -29 35 -19 19 -36 35
-39 35 -3 0 10 -16 29 -35z"/>
<path d="M1285 3193 c18 -42 25 -52 25 -34 0 14 -28 71 -35 71 -3 0 2 -17 10
-37z"/>
<path d="M3430 3226 c0 -2 8 -10 18 -17 15 -13 16 -12 3 4 -13 16 -21 21 -21
13z"/>
<path d="M3440 3156 c0 -6 175 -176 215 -208 17 -14 62 -49 100 -78 39 -29 76
-57 83 -63 6 -5 12 -7 12 -4 0 2 -42 38 -92 78 -51 41 -144 120 -205 177 -62
57 -113 101 -113 98z"/>
<path d="M3870 3152 c0 -4 10 -13 23 -21 22 -14 22 -14 3 8 -20 22 -26 25 -26
13z"/>
<path d="M1700 3093 c0 -13 41 -75 46 -70 3 2 -5 21 -17 41 -21 35 -29 44 -29
29z"/>
<path d="M3950 3091 c1 -7 112 -83 150 -101 14 -7 23 -10 20 -7 -13 14 -170
114 -170 108z"/>
<path d="M1390 2960 c0 -46 53 -102 81 -85 28 18 -5 77 -51 93 -26 10 -30 9
-30 -8z"/>
<path d="M3887 2773 c38 -34 181 -121 255 -156 29 -14 89 -42 133 -61 44 -20
88 -41 97 -46 10 -6 27 -10 37 -10 18 0 33 -5 96 -31 35 -14 119 -41 155 -50
19 -4 55 -13 80 -19 44 -11 79 -19 178 -40 26 -6 88 -13 137 -15 l90 -4 -65
10 c-449 68 -803 190 -1125 388 -55 34 -86 49 -68 34z"/>
<path d="M4350 2746 c0 -2 7 -7 16 -10 8 -3 12 -2 9 4 -6 10 -25 14 -25 6z"/>
<path d="M5145 2710 c40 -9 112 -13 104 -6 -2 2 -35 6 -74 9 -54 4 -61 4 -30
-3z"/>
<path d="M5658 2713 c7 -3 16 -2 19 1 4 3 -2 6 -13 5 -11 0 -14 -3 -6 -6z"/>
<path d="M5563 2703 c9 -2 25 -2 35 0 9 3 1 5 -18 5 -19 0 -27 -2 -17 -5z"/>
<path d="M2052 2658 c6 -18 28 -21 28 -4 0 9 -7 16 -16 16 -9 0 -14 -5 -12
-12z"/>
<path d="M2365 2561 c-3 -5 -1 -12 5 -16 12 -7 30 2 30 16 0 12 -27 12 -35 0z"/>
<path d="M2956 2526 c3 -8 16 -22 30 -30 19 -13 22 -14 18 -2 -3 8 -16 22 -30
30 -19 13 -22 14 -18 2z"/>
<path d="M5700 2245 c-10 -12 -9 -16 4 -21 24 -9 47 3 40 21 -8 19 -28 19 -44
0z"/>
<path d="M5526 2234 c-9 -23 12 -44 43 -44 36 0 53 18 40 42 -13 24 -74 25
-83 2z"/>
<path d="M3428 1863 c7 -3 16 -2 19 1 4 3 -2 6 -13 5 -11 0 -14 -3 -6 -6z"/>
<path d="M5146 1397 c-21 -16 -18 -55 5 -70 9 -5 28 -7 42 -3 34 8 37 48 5 70
-27 19 -29 19 -52 3z"/>
<path d="M5990 1241 c0 -16 19 -23 40 -16 30 10 24 25 -10 25 -16 0 -30 -4
-30 -9z"/>
</g>
</svg>
